<svg width="25" height="25" viewBox="0 0 25 25" fill="none" xmlns="http://www.w3.org/2000/svg">
<path d="M20.4486 4.54613C19.4614 3.55391 18.2855 2.76721 16.9895 2.23191C15.6935 1.69661 14.3034 1.42342 12.9001 1.42829C7.02075 1.42829 2.22894 6.19613 2.22894 12.0461C2.22894 13.9211 2.72427 15.7425 3.65033 17.3497L2.14279 22.8568L7.79606 21.3782C9.35744 22.2247 11.1126 22.6747 12.9001 22.6747C18.7795 22.6747 23.5714 17.9068 23.5714 12.0568C23.5714 9.21755 22.4622 6.5497 20.4486 4.54613ZM12.9001 20.8747C11.3065 20.8747 9.74509 20.4461 8.37754 19.6425L8.05449 19.4497L4.69484 20.3282L5.58859 17.0711L5.37323 16.739C4.48782 15.3321 4.01767 13.706 4.01645 12.0461C4.01645 7.18184 8.00065 3.21757 12.8894 3.21757C15.2584 3.21757 17.4874 4.13899 19.1564 5.81042C19.9829 6.62895 20.6378 7.60255 21.0833 8.67479C21.5287 9.74703 21.7559 10.8966 21.7515 12.0568C21.7731 16.9211 17.7889 20.8747 12.9001 20.8747ZM17.7673 14.2747C17.4981 14.1461 16.1844 13.5033 15.9475 13.4068C15.6999 13.3211 15.5276 13.2783 15.3445 13.5354C15.1615 13.8032 14.6554 14.4032 14.5046 14.5747C14.3538 14.7568 14.1923 14.7782 13.9231 14.639C13.6539 14.5104 12.7925 14.2211 11.7803 13.3211C10.9834 12.614 10.4558 11.7461 10.2943 11.4783C10.1435 11.2104 10.2727 11.0711 10.4127 10.9318C10.5312 10.814 10.6819 10.6211 10.8111 10.4711C10.9404 10.3211 10.9942 10.2033 11.0803 10.0318C11.1665 9.84969 11.1234 9.69969 11.0588 9.57112C10.9942 9.44255 10.4558 8.13541 10.2404 7.5997C10.0251 7.08541 9.79893 7.1497 9.63741 7.13898H9.12054C8.93748 7.13898 8.65751 7.20327 8.40984 7.47113C8.17294 7.73898 7.48378 8.38184 7.48378 9.68898C7.48378 10.9961 8.44215 12.2604 8.57136 12.4318C8.70058 12.614 10.4558 15.2925 13.1263 16.439C13.7616 16.7175 14.2569 16.8782 14.6446 16.9961C15.2799 17.1997 15.8614 17.1675 16.3244 17.1032C16.8413 17.0282 17.9073 16.4604 18.1227 15.839C18.3488 15.2175 18.3488 14.6925 18.2734 14.5747C18.1981 14.4568 18.0365 14.4032 17.7673 14.2747Z" fill="#FAFAFA"/>
</svg>
