<svg width="180" height="63" viewBox="0 0 180 63" fill="none" xmlns="http://www.w3.org/2000/svg">
<path d="M0 0H39.6735H81L63.761 29.9722H0V0Z" fill="#2C323D"/>
<path d="M84.2576 -0.000488281H180L163.456 29.9717H67.5L84.2576 -0.000488281Z" fill="#1B69D3"/>
<path d="M30.318 42.1658C30.318 40.2566 29.6775 38.8089 28.3965 37.8228C27.3255 36.9836 25.782 36.4381 23.766 36.1864C22.611 36.0395 20.721 35.9661 18.096 35.9661C12.846 35.9661 9.51753 36.4067 8.11053 37.2878C6.70353 38.169 6.00003 40.33 6.00003 43.7708H9.21303C9.21303 41.463 9.68553 40.0782 10.6305 39.6167C11.5755 39.1341 14.064 38.8928 18.096 38.8928C21.708 38.8928 24.1125 39.0922 25.3095 39.4908C26.5065 39.8684 27.105 40.7601 27.105 42.1658C27.105 43.5086 26.6535 44.4212 25.7505 44.9038C25.0785 45.2604 23.934 45.4388 22.317 45.4388H12.3945V48.3341H22.317C23.85 48.3341 24.984 48.5439 25.719 48.9635C26.643 49.488 27.105 50.4216 27.105 51.7644C27.105 53.1701 26.475 54.1037 25.215 54.5653C23.976 55.0059 21.603 55.2262 18.096 55.2262C14.085 55.2262 11.6385 55.0059 10.7565 54.5653C9.72753 54.0408 9.21303 52.6246 9.21303 50.3167H6.00003C6.00003 53.7366 6.71403 55.8976 8.14203 56.7997C9.57003 57.6809 12.888 58.1215 18.096 58.1215C21.393 58.1215 23.6085 58.0481 24.7425 57.9012C26.6745 57.6494 28.0605 57.1039 28.9005 56.2647C29.8455 55.3206 30.318 53.8205 30.318 51.7644C30.318 50.5475 30.1185 49.5719 29.7195 48.8376C29.3415 48.0823 28.764 47.4949 27.987 47.0753C28.806 46.5927 29.394 46.0052 29.751 45.3129C30.129 44.6205 30.318 43.5715 30.318 42.1658Z" fill="white"/>
<path d="M51.551 36.2808L62.891 57.8068H59.2685L56.717 53.0232H41.345L38.825 57.8068H35.2025L46.5425 36.2808H51.551ZM55.331 50.1594L49.472 38.8614H48.653L42.794 50.1594H55.331Z" fill="white"/>
<path d="M68.0639 36.2808H93.0119V57.8068H89.7989V39.1761H71.2769V57.8068H68.0639V36.2808Z" fill="white"/>
<path d="M114.871 36.2808L126.211 57.8068H122.588L120.037 53.0232H104.665L102.145 57.8068H98.5224L109.862 36.2808H114.871ZM118.651 50.1594L112.792 38.8614H111.973L106.114 50.1594H118.651Z" fill="white"/>
<path d="M134.282 43.4876V36.3122H155.985V54.9115H157.529V62.9995H154.568V57.8068H134.124V62.9995H131.163V54.9115H132.738C133.137 53.5268 133.494 51.628 133.809 49.2153C134.124 46.7815 134.282 44.8723 134.282 43.4876ZM152.772 39.2076H137.495V43.4876C137.495 45.1241 137.369 47.0648 137.117 49.3097C136.865 51.5546 136.539 53.4219 136.14 54.9115H152.772V39.2076Z" fill="white"/>
<path d="M18.0803 16.904L14.4578 8.0023L8.65278 22.4789H6.87527L13.5578 6.06909H15.4028L22.2428 22.4789H20.3303L18.7103 18.4776H11.1728L11.7803 16.904H18.0803Z" fill="#FAFAFA"/>
<path d="M32.7065 10.7448C34.8215 10.7448 35.879 11.569 35.879 13.2175V14.2065C35.879 15.2705 35.384 15.9824 34.394 16.3421C35.474 16.7017 36.014 17.4435 36.014 18.5675V19.9162C36.014 21.6246 34.9715 22.4789 32.8865 22.4789H24.359V10.7448H32.7065ZM26.0015 20.8604H32.6165C33.7865 20.8604 34.3715 20.3883 34.3715 19.4442V18.4776C34.3715 17.4885 33.674 16.9939 32.279 16.9939H26.9015V15.7801H32.279C33.614 15.7801 34.2815 15.323 34.2815 14.4088V13.5771C34.2815 12.6929 33.6815 12.2509 32.4815 12.2509H26.0015V20.8604Z" fill="#FAFAFA"/>
<path d="M49.7793 10.7448V12.3857H44.8518V22.4789H43.1868V12.3857H38.2368V10.7448H49.7793Z" fill="#FAFAFA"/>
<path d="M59.712 10.7448C62.157 10.7448 63.3795 11.9961 63.3795 14.4988V18.7248C63.3795 21.2275 62.157 22.4789 59.712 22.4789H55.7295C53.2845 22.4789 52.062 21.2275 52.062 18.7248V14.4988C52.062 11.9961 53.2845 10.7448 55.7295 10.7448H59.712ZM53.7045 18.4551C53.7045 20.0586 54.4845 20.8604 56.0445 20.8604H59.397C60.957 20.8604 61.737 20.0586 61.737 18.4551V14.7685C61.737 13.18 60.957 12.3857 59.397 12.3857H56.0445C54.4845 12.3857 53.7045 13.18 53.7045 14.7685V18.4551Z" fill="#FAFAFA"/>
<path d="M82.5808 20.7282C83.2368 20.6642 83.7648 20.4484 84.1648 20.0808C84.5648 19.7131 84.8528 19.1217 85.0288 18.3064L86.7088 9.96216H94.8208V20.7282H96.7168V26.267H95.1328V22.4785H83.1568V26.267H81.5728V20.7282H82.5808ZM93.0688 20.7521V11.7125H88.0048L86.5408 18.8579C86.4608 19.2415 86.3648 19.5932 86.2528 19.9129C86.1408 20.2166 86.0048 20.4964 85.8448 20.7521H93.0688Z" fill="#FAFAFA"/>
<path d="M100.961 9.96216V19.8889L109.409 9.96216H111.161V22.4785H109.409V12.4798L100.961 22.4785H99.2093V9.96216H100.961Z" fill="#FAFAFA"/>
<path d="M126.98 9.96216V22.4785H125.228V11.7125H120.164L118.7 18.8579C118.428 20.1367 117.956 21.0638 117.284 21.6393C116.612 22.1988 115.652 22.4785 114.404 22.4785H113.732V20.7521H114.308C115.092 20.7521 115.716 20.5763 116.18 20.2246C116.66 19.857 116.996 19.2176 117.188 18.3064L118.868 9.96216H126.98Z" fill="#FAFAFA"/>
<path d="M138.516 9.96216C140.756 9.96216 141.876 11.0651 141.876 13.2711V14.2781C141.876 16.1164 140.82 17.0356 138.708 17.0356H132.9V15.6209H138.228C139.524 15.6209 140.172 15.0694 140.172 13.9664V13.391C140.172 12.1122 139.516 11.4728 138.204 11.4728H134.412C132.764 11.4728 131.94 12.32 131.94 14.0144V18.3064C131.94 19.9529 132.74 20.7761 134.34 20.7761H141.468V22.4785H134.124C131.516 22.4785 130.212 21.1438 130.212 18.4743V13.9664C130.212 11.2969 131.516 9.96216 134.124 9.96216H138.516Z" fill="#FAFAFA"/>
<path d="M153.031 9.96216C155.639 9.96216 156.943 11.2969 156.943 13.9664V18.4743C156.943 21.1438 155.639 22.4785 153.031 22.4785H147.703V20.7521H152.695C154.359 20.7521 155.191 19.8969 155.191 18.1865V14.2542C155.191 12.5597 154.359 11.7125 152.695 11.7125H149.215C147.567 11.7125 146.743 12.5597 146.743 14.2542V26.7226H144.991V13.9664C144.991 11.2969 146.295 9.96216 148.903 9.96216H153.031Z" fill="#FAFAFA"/>
</svg>
