<svg width="50" height="50" viewBox="0 0 50 50" fill="none" xmlns="http://www.w3.org/2000/svg">
<circle cx="25" cy="25" r="25" fill="#1B6BD3"/>
<path d="M36.6678 32.7097L30.335 26.96C30.1852 26.8257 29.9616 26.8338 29.8219 26.9815L27.6246 29.3032C27.2029 29.7461 26.5196 29.7461 26.1004 29.3032L20.4429 23.3254C20.2397 23.1107 20.128 22.8261 20.128 22.5201C20.128 22.2142 20.2397 21.9296 20.4429 21.7149L22.6403 19.3931C22.78 19.2455 22.7876 19.0093 22.6606 18.851L17.219 12.1592C17.1455 12.0706 17.0412 12.0195 16.932 12.0195C16.6729 12.0195 16.4315 12.1243 16.2512 12.3175L15.3011 13.3214C13.6015 15.1143 12.6667 17.5113 12.6667 20.0638C12.6667 22.6164 13.6015 25.0134 15.2986 26.8062L22.8027 34.7352C24.5023 36.5311 26.7683 37.5189 29.1868 37.5189C31.6052 37.5189 33.8712 36.5312 35.5679 34.7354L36.518 33.7315C36.701 33.5381 36.8 33.2832 36.8 33.0095C36.8 32.8967 36.7517 32.7866 36.6678 32.7089L36.6678 32.7097ZM35.9845 33.1686L35.0344 34.1725C33.4798 35.8151 31.4018 36.7225 29.1864 36.7225C26.9713 36.7225 24.8933 35.8178 23.3384 34.1725L15.8317 26.2435C14.2771 24.6008 13.4184 22.4052 13.4184 20.0643C13.4184 17.7237 14.2746 15.5281 15.8292 13.8852L16.7793 12.8813C16.7843 12.876 16.7894 12.8706 16.7946 12.868L21.8548 19.0926L19.9038 21.1541C19.5584 21.5191 19.3678 22.0051 19.3678 22.523C19.3678 23.0409 19.5583 23.5269 19.9038 23.8919L25.5613 29.8697C26.275 30.6239 27.4386 30.6239 28.1524 29.8697L30.1034 27.8082L35.9945 33.155C35.9944 33.1601 35.9893 33.1655 35.9843 33.1681L35.9845 33.1686Z" fill="white"/>
</svg>
