<svg width="50" height="50" viewBox="0 0 50 50" fill="none" xmlns="http://www.w3.org/2000/svg">
<circle cx="25" cy="25" r="25" fill="#1B6BD3"/>
<path d="M36.6679 32.7092L30.3351 26.9595C30.1852 26.8252 29.9617 26.8334 29.822 26.981L27.6246 29.3027C27.203 29.7456 26.5196 29.7456 26.1005 29.3027L20.443 23.3249C20.2398 23.1102 20.128 22.8256 20.128 22.5196C20.128 22.2137 20.2398 21.9291 20.443 21.7144L22.6403 19.3927C22.78 19.245 22.7876 19.0088 22.6607 18.8505L17.2191 12.1587C17.1455 12.0701 17.0413 12.019 16.9321 12.019C16.673 12.019 16.4316 12.1238 16.2513 12.317L15.3012 13.3209C13.6016 15.1138 12.6668 17.5109 12.6668 20.0633C12.6668 22.6159 13.6016 25.0129 15.2986 26.8057L22.8028 34.7347C24.5023 36.5306 26.7684 37.5184 29.1869 37.5184C31.6052 37.5184 33.8713 36.5307 35.5679 34.7349L36.5181 33.731C36.701 33.5376 36.8 33.2827 36.8 33.009C36.8 32.8962 36.7517 32.7861 36.6679 32.7084L36.6679 32.7092ZM35.9846 33.1681L35.0345 34.172C33.4799 35.8146 31.4019 36.722 29.1865 36.722C26.9713 36.722 24.8933 35.8173 23.3385 34.172L15.8318 26.243C14.2772 24.6003 13.4185 22.4047 13.4185 20.0639C13.4185 17.7233 14.2746 15.5276 15.8292 13.8847L16.7793 12.8808C16.7844 12.8755 16.7894 12.8702 16.7947 12.8675L21.8549 19.0921L19.9038 21.1537C19.5584 21.5186 19.3678 22.0046 19.3678 22.5225C19.3678 23.0404 19.5584 23.5264 19.9038 23.8914L25.5614 29.8693C26.2751 30.6234 27.4387 30.6234 28.1525 29.8693L30.1035 27.8077L35.9946 33.1545C35.9944 33.1596 35.9894 33.165 35.9843 33.1676L35.9846 33.1681Z" fill="white"/>
</svg>
