<svg width="50" height="50" viewBox="0 0 50 50" fill="none" xmlns="http://www.w3.org/2000/svg">
<circle cx="25" cy="25" r="25" fill="#2F89CE"/>
<path d="M11.6881 25.4666L17.4358 27.6098L19.6764 34.8187C19.7739 35.3057 20.3584 35.4032 20.7481 35.1109L23.9628 32.4806C24.2551 32.1884 24.7422 32.1884 25.1319 32.4806L30.8795 36.6696C31.2692 36.9618 31.8537 36.767 31.9512 36.2799L36.2375 15.8223C36.335 15.3353 35.8479 14.8482 35.3608 15.043L11.6881 24.2002C11.1036 24.395 11.1036 25.2718 11.6881 25.4666ZM19.3842 26.5382L30.6847 19.6216C30.8795 19.5242 31.0744 19.8164 30.8795 19.9139L21.6248 28.584C21.3326 28.8762 21.0403 29.2659 21.0403 29.753L20.7481 32.091C20.7481 32.3832 20.261 32.4806 20.1635 32.091L18.9945 27.8046C18.7023 27.3175 18.8971 26.733 19.3842 26.5382Z" fill="white"/>
</svg>
