<svg width="58" height="58" viewBox="0 0 58 58" fill="none" xmlns="http://www.w3.org/2000/svg">
<g filter="url(#filter0_d_479_2249)">
<circle cx="29" cy="29" r="25" fill="#2F89CE"/>
<path d="M15.6881 29.4666L21.4358 31.6098L23.6764 38.8187C23.7739 39.3057 24.3584 39.4032 24.7481 39.1109L27.9628 36.4806C28.2551 36.1884 28.7422 36.1884 29.1319 36.4806L34.8795 40.6696C35.2692 40.9618 35.8537 40.767 35.9512 40.2799L40.2375 19.8223C40.335 19.3353 39.8479 18.8482 39.3608 19.043L15.6881 28.2002C15.1036 28.395 15.1036 29.2718 15.6881 29.4666ZM23.3842 30.5382L34.6847 23.6216C34.8795 23.5242 35.0744 23.8164 34.8795 23.9139L25.6248 32.584C25.3326 32.8762 25.0403 33.2659 25.0403 33.753L24.7481 36.091C24.7481 36.3832 24.261 36.4806 24.1635 36.091L22.9945 31.8046C22.7023 31.3175 22.8971 30.733 23.3842 30.5382Z" fill="white"/>
</g>
<defs>
<filter id="filter0_d_479_2249" x="0" y="0" width="58" height="58" filterUnits="userSpaceOnUse" color-interpolation-filters="sRGB">
<feFlood flood-opacity="0" result="BackgroundImageFix"/>
<feColorMatrix in="SourceAlpha" type="matrix" values="0 0 0 0 0 0 0 0 0 0 0 0 0 0 0 0 0 0 127 0" result="hardAlpha"/>
<feOffset/>
<feGaussianBlur stdDeviation="2"/>
<feComposite in2="hardAlpha" operator="out"/>
<feColorMatrix type="matrix" values="0 0 0 0 0 0 0 0 0 0 0 0 0 0 0 0 0 0 0.15 0"/>
<feBlend mode="normal" in2="BackgroundImageFix" result="effect1_dropShadow_479_2249"/>
<feBlend mode="normal" in="SourceGraphic" in2="effect1_dropShadow_479_2249" result="shape"/>
</filter>
</defs>
</svg>
