<svg width="58" height="58" viewBox="0 0 58 58" fill="none" xmlns="http://www.w3.org/2000/svg">
<g filter="url(#filter0_d_479_2246)">
<circle cx="29" cy="29" r="25" fill="#7C509A"/>
<path d="M36.8175 17.1824C32.0531 16.2725 27.1054 16.2725 22.341 17.1824C20.2337 17.6373 17.5766 20.1849 17.1185 22.1866C16.2938 26.099 16.2938 30.1024 17.1185 34.0147C17.6682 36.0164 20.3253 38.564 22.341 39.0189C22.4326 39.0189 22.5242 39.1099 22.5242 39.2009V44.933C22.5242 45.206 22.8907 45.3879 23.074 45.115L25.8227 42.2944C25.8227 42.2944 28.0216 40.0198 28.3881 39.6558C28.3881 39.6558 28.4798 39.5649 28.5714 39.5649C31.3201 39.6558 34.1604 39.3829 36.9091 38.928C39.0165 38.473 41.6735 35.9254 42.1317 33.9237C42.9563 30.0114 42.9563 26.008 42.1317 22.0956C41.5819 20.1849 38.9248 17.6373 36.8175 17.1824ZM36.9091 34.2877C36.451 35.1975 35.9013 35.9254 34.985 36.3804C34.7102 36.4713 34.4353 36.5623 34.1604 36.6533C33.7939 36.5623 33.5191 36.4713 33.2442 36.3804C30.3122 35.1975 27.5635 33.5598 25.3646 31.1942C24.1735 29.8294 23.1656 28.2826 22.341 26.6449C21.9745 25.826 21.608 25.0981 21.3331 24.2793C21.0583 23.5514 21.5164 22.8235 21.9745 22.2776C22.4326 21.7317 22.9824 21.3677 23.6237 21.0948C24.0818 20.8218 24.54 21.0038 24.9065 21.3677C25.6394 22.2776 26.3724 23.1874 26.9222 24.1883C27.2887 24.8252 27.197 25.5531 26.5557 26.008C26.3724 26.099 26.2808 26.19 26.0976 26.3719C26.0059 26.4629 25.8227 26.5539 25.7311 26.7359C25.5478 27.0088 25.5478 27.2818 25.6394 27.5548C26.3724 29.6474 27.7468 31.2852 29.8541 32.195C30.2206 32.377 30.4955 32.468 30.9536 32.468C31.595 32.377 31.8698 31.6491 32.3279 31.2852C32.7861 30.9212 33.3358 30.9212 33.8855 31.1942C34.3437 31.4671 34.8018 31.8311 35.3515 32.195C35.8096 32.559 36.2678 32.8319 36.7259 33.1959C37.0007 33.3778 37.0924 33.8328 36.9091 34.2877ZM33.0609 27.4638C32.8777 27.4638 32.9693 27.4638 33.0609 27.4638C32.6944 27.4638 32.6028 27.2818 32.5112 27.0088C32.5112 26.8269 32.5112 26.5539 32.4196 26.3719C32.3279 26.008 32.1447 25.6441 31.7782 25.3711C31.595 25.2801 31.4117 25.1891 31.2285 25.0981C30.9536 25.0072 30.7704 25.0072 30.4955 25.0072C30.2206 24.9162 30.129 24.7342 30.129 24.4612C30.129 24.2793 30.4039 24.0973 30.5871 24.0973C32.0531 24.1883 33.1526 25.0072 33.3358 26.7359C33.3358 26.8269 33.3358 27.0088 33.3358 27.0998C33.3358 27.2818 33.2442 27.4638 33.0609 27.4638ZM32.1447 23.4604C31.6866 23.2784 31.2285 23.0965 30.6787 23.0055C30.4955 23.0055 30.2206 22.9145 30.0374 22.9145C29.7625 22.9145 29.5792 22.7325 29.6709 22.4596C29.6709 22.1866 29.8541 22.0046 30.129 22.0956C31.0452 22.1866 31.8698 22.3686 32.6944 22.7325C34.3437 23.5514 35.2599 24.9162 35.5348 26.7359C35.5348 26.8269 35.5348 26.9179 35.5348 27.0088C35.5348 27.1908 35.5348 27.3728 35.5348 27.6457C35.5348 27.7367 35.5348 27.8277 35.5348 27.9187C35.4431 28.2826 34.8018 28.3736 34.7102 27.9187C34.7102 27.8277 34.6185 27.6457 34.6185 27.5548C34.6185 26.7359 34.4353 25.917 34.0688 25.1891C33.5191 24.3703 32.8777 23.8243 32.1447 23.4604ZM37.0924 28.9195C36.8175 28.9195 36.6342 28.6466 36.6342 28.3736C36.6342 27.8277 36.5426 27.2818 36.451 26.7359C36.0845 23.8243 33.7023 21.4587 30.862 21.0038C30.4039 20.9128 29.9457 20.9128 29.5792 20.8218C29.3044 20.8218 28.9379 20.8218 28.8463 20.4579C28.7546 20.1849 29.0295 19.912 29.3044 19.912C29.396 19.912 29.4876 19.912 29.4876 19.912C29.6709 19.912 33.2442 20.0029 29.4876 19.912C33.3358 20.0029 36.5426 22.5505 37.184 26.3719C37.2756 27.0088 37.3672 27.6457 37.3672 28.3736C37.5505 28.6466 37.3672 28.9195 37.0924 28.9195Z" fill="white"/>
</g>
<defs>
<filter id="filter0_d_479_2246" x="0" y="0" width="58" height="58" filterUnits="userSpaceOnUse" color-interpolation-filters="sRGB">
<feFlood flood-opacity="0" result="BackgroundImageFix"/>
<feColorMatrix in="SourceAlpha" type="matrix" values="0 0 0 0 0 0 0 0 0 0 0 0 0 0 0 0 0 0 127 0" result="hardAlpha"/>
<feOffset/>
<feGaussianBlur stdDeviation="2"/>
<feComposite in2="hardAlpha" operator="out"/>
<feColorMatrix type="matrix" values="0 0 0 0 0 0 0 0 0 0 0 0 0 0 0 0 0 0 0.15 0"/>
<feBlend mode="normal" in2="BackgroundImageFix" result="effect1_dropShadow_479_2246"/>
<feBlend mode="normal" in="SourceGraphic" in2="effect1_dropShadow_479_2246" result="shape"/>
</filter>
</defs>
</svg>
