<svg width="50" height="50" viewBox="0 0 50 50" fill="none" xmlns="http://www.w3.org/2000/svg">
<circle cx="25" cy="25" r="25" fill="#7C509A"/>
<path d="M32.8175 13.1824C28.0531 12.2725 23.1054 12.2725 18.341 13.1824C16.2337 13.6373 13.5766 16.1849 13.1185 18.1866C12.2938 22.099 12.2938 26.1024 13.1185 30.0147C13.6682 32.0164 16.3253 34.564 18.341 35.0189C18.4326 35.0189 18.5242 35.1099 18.5242 35.2009V40.933C18.5242 41.206 18.8907 41.3879 19.074 41.115L21.8227 38.2944C21.8227 38.2944 24.0216 36.0198 24.3881 35.6558C24.3881 35.6558 24.4798 35.5649 24.5714 35.5649C27.3201 35.6558 30.1604 35.3829 32.9091 34.928C35.0165 34.473 37.6735 31.9254 38.1317 29.9237C38.9563 26.0114 38.9563 22.008 38.1317 18.0956C37.5819 16.1849 34.9248 13.6373 32.8175 13.1824ZM32.9091 30.2877C32.451 31.1975 31.9013 31.9254 30.985 32.3804C30.7102 32.4713 30.4353 32.5623 30.1604 32.6533C29.7939 32.5623 29.5191 32.4713 29.2442 32.3804C26.3122 31.1975 23.5635 29.5598 21.3646 27.1942C20.1735 25.8294 19.1656 24.2826 18.341 22.6449C17.9745 21.826 17.608 21.0981 17.3331 20.2793C17.0583 19.5514 17.5164 18.8235 17.9745 18.2776C18.4326 17.7317 18.9824 17.3677 19.6237 17.0948C20.0818 16.8218 20.54 17.0038 20.9065 17.3677C21.6394 18.2776 22.3724 19.1874 22.9222 20.1883C23.2887 20.8252 23.197 21.5531 22.5557 22.008C22.3724 22.099 22.2808 22.19 22.0976 22.3719C22.0059 22.4629 21.8227 22.5539 21.7311 22.7359C21.5478 23.0088 21.5478 23.2818 21.6394 23.5548C22.3724 25.6474 23.7468 27.2852 25.8541 28.195C26.2206 28.377 26.4955 28.468 26.9536 28.468C27.595 28.377 27.8698 27.6491 28.3279 27.2852C28.7861 26.9212 29.3358 26.9212 29.8855 27.1942C30.3437 27.4671 30.8018 27.8311 31.3515 28.195C31.8096 28.559 32.2678 28.8319 32.7259 29.1959C33.0007 29.3778 33.0924 29.8328 32.9091 30.2877ZM29.0609 23.4638C28.8777 23.4638 28.9693 23.4638 29.0609 23.4638C28.6944 23.4638 28.6028 23.2818 28.5112 23.0088C28.5112 22.8269 28.5112 22.5539 28.4196 22.3719C28.3279 22.008 28.1447 21.6441 27.7782 21.3711C27.595 21.2801 27.4117 21.1891 27.2285 21.0981C26.9536 21.0072 26.7704 21.0072 26.4955 21.0072C26.2206 20.9162 26.129 20.7342 26.129 20.4612C26.129 20.2793 26.4039 20.0973 26.5871 20.0973C28.0531 20.1883 29.1526 21.0072 29.3358 22.7359C29.3358 22.8269 29.3358 23.0088 29.3358 23.0998C29.3358 23.2818 29.2442 23.4638 29.0609 23.4638ZM28.1447 19.4604C27.6866 19.2784 27.2285 19.0965 26.6787 19.0055C26.4955 19.0055 26.2206 18.9145 26.0374 18.9145C25.7625 18.9145 25.5792 18.7325 25.6709 18.4596C25.6709 18.1866 25.8541 18.0046 26.129 18.0956C27.0452 18.1866 27.8698 18.3686 28.6944 18.7325C30.3437 19.5514 31.2599 20.9162 31.5348 22.7359C31.5348 22.8269 31.5348 22.9179 31.5348 23.0088C31.5348 23.1908 31.5348 23.3728 31.5348 23.6457C31.5348 23.7367 31.5348 23.8277 31.5348 23.9187C31.4431 24.2826 30.8018 24.3736 30.7102 23.9187C30.7102 23.8277 30.6185 23.6457 30.6185 23.5548C30.6185 22.7359 30.4353 21.917 30.0688 21.1891C29.5191 20.3703 28.8777 19.8243 28.1447 19.4604ZM33.0924 24.9195C32.8175 24.9195 32.6342 24.6466 32.6342 24.3736C32.6342 23.8277 32.5426 23.2818 32.451 22.7359C32.0845 19.8243 29.7023 17.4587 26.862 17.0038C26.4039 16.9128 25.9457 16.9128 25.5792 16.8218C25.3044 16.8218 24.9379 16.8218 24.8463 16.4579C24.7546 16.1849 25.0295 15.912 25.3044 15.912C25.396 15.912 25.4876 15.912 25.4876 15.912C25.6709 15.912 29.2442 16.0029 25.4876 15.912C29.3358 16.0029 32.5426 18.5505 33.184 22.3719C33.2756 23.0088 33.3672 23.6457 33.3672 24.3736C33.5505 24.6466 33.3672 24.9195 33.0924 24.9195Z" fill="white"/>
</svg>
