<svg width="50" height="50" viewBox="0 0 50 50" fill="none" xmlns="http://www.w3.org/2000/svg">
<circle cx="25" cy="25" r="25" fill="#48C95F"/>
<path d="M34.9085 15.0791C32.439 12.6182 29.1463 11.251 25.6707 11.251C18.4451 11.251 12.5915 17.0843 12.5915 24.2848C12.5915 26.5635 13.2317 28.8421 14.3293 30.7562L12.5 37.501L19.4512 35.6781C21.372 36.6807 23.4756 37.2275 25.6707 37.2275C32.8963 37.2275 38.75 31.3942 38.75 24.1937C38.6585 20.8213 37.378 17.54 34.9085 15.0791ZM31.9817 28.9333C31.7073 29.6624 30.4268 30.3916 29.7866 30.4827C29.2378 30.5739 28.5061 30.5739 27.7744 30.3916C27.3171 30.2093 26.6768 30.027 25.9451 29.6624C22.6524 28.2953 20.5488 25.014 20.3659 24.7406C20.1829 24.5583 18.9939 23.0088 18.9939 21.3682C18.9939 19.7275 19.8171 18.9984 20.0915 18.6338C20.3659 18.2692 20.7317 18.2692 21.0061 18.2692C21.189 18.2692 21.4634 18.2692 21.6463 18.2692C21.8293 18.2692 22.1037 18.1781 22.378 18.8161C22.6524 19.4541 23.2927 21.0947 23.3841 21.1859C23.4756 21.3682 23.4756 21.5505 23.3841 21.7327C23.2927 21.915 23.2012 22.0973 23.0183 22.2796C22.8354 22.4619 22.6524 22.7354 22.561 22.8265C22.378 23.0088 22.1951 23.1911 22.378 23.4645C22.561 23.8291 23.2012 24.8317 24.2073 25.7432C25.4878 26.8369 26.4939 27.2015 26.8598 27.3838C27.2256 27.5661 27.4085 27.4749 27.5915 27.2926C27.7744 27.1104 28.4146 26.3812 28.5976 26.0166C28.7805 25.652 29.0549 25.7432 29.3293 25.8343C29.6037 25.9255 31.25 26.7458 31.5244 26.9281C31.8902 27.1104 32.0732 27.2015 32.1646 27.2926C32.2561 27.5661 32.2561 28.2041 31.9817 28.9333Z" fill="white"/>
</svg>
