<svg width="58" height="58" viewBox="0 0 58 58" fill="none" xmlns="http://www.w3.org/2000/svg">
<g filter="url(#filter0_d_479_2243)">
<circle cx="29" cy="29" r="25" fill="#48C95F"/>
<path d="M38.9085 19.0791C36.439 16.6182 33.1463 15.251 29.6707 15.251C22.4451 15.251 16.5915 21.0843 16.5915 28.2848C16.5915 30.5635 17.2317 32.8421 18.3293 34.7562L16.5 41.501L23.4512 39.6781C25.372 40.6807 27.4756 41.2275 29.6707 41.2275C36.8963 41.2275 42.75 35.3942 42.75 28.1937C42.6585 24.8213 41.378 21.54 38.9085 19.0791ZM35.9817 32.9333C35.7073 33.6624 34.4268 34.3916 33.7866 34.4827C33.2378 34.5739 32.5061 34.5739 31.7744 34.3916C31.3171 34.2093 30.6768 34.027 29.9451 33.6624C26.6524 32.2953 24.5488 29.014 24.3659 28.7406C24.1829 28.5583 22.9939 27.0088 22.9939 25.3682C22.9939 23.7275 23.8171 22.9984 24.0915 22.6338C24.3659 22.2692 24.7317 22.2692 25.0061 22.2692C25.189 22.2692 25.4634 22.2692 25.6463 22.2692C25.8293 22.2692 26.1037 22.1781 26.378 22.8161C26.6524 23.4541 27.2927 25.0947 27.3841 25.1859C27.4756 25.3682 27.4756 25.5505 27.3841 25.7327C27.2927 25.915 27.2012 26.0973 27.0183 26.2796C26.8354 26.4619 26.6524 26.7354 26.561 26.8265C26.378 27.0088 26.1951 27.1911 26.378 27.4645C26.561 27.8291 27.2012 28.8317 28.2073 29.7432C29.4878 30.8369 30.4939 31.2015 30.8598 31.3838C31.2256 31.5661 31.4085 31.4749 31.5915 31.2926C31.7744 31.1104 32.4146 30.3812 32.5976 30.0166C32.7805 29.652 33.0549 29.7432 33.3293 29.8343C33.6037 29.9255 35.25 30.7458 35.5244 30.9281C35.8902 31.1104 36.0732 31.2015 36.1646 31.2926C36.2561 31.5661 36.2561 32.2041 35.9817 32.9333Z" fill="white"/>
</g>
<defs>
<filter id="filter0_d_479_2243" x="0" y="0" width="58" height="58" filterUnits="userSpaceOnUse" color-interpolation-filters="sRGB">
<feFlood flood-opacity="0" result="BackgroundImageFix"/>
<feColorMatrix in="SourceAlpha" type="matrix" values="0 0 0 0 0 0 0 0 0 0 0 0 0 0 0 0 0 0 127 0" result="hardAlpha"/>
<feOffset/>
<feGaussianBlur stdDeviation="2"/>
<feComposite in2="hardAlpha" operator="out"/>
<feColorMatrix type="matrix" values="0 0 0 0 0 0 0 0 0 0 0 0 0 0 0 0 0 0 0.15 0"/>
<feBlend mode="normal" in2="BackgroundImageFix" result="effect1_dropShadow_479_2243"/>
<feBlend mode="normal" in="SourceGraphic" in2="effect1_dropShadow_479_2243" result="shape"/>
</filter>
</defs>
</svg>
