<svg width="24" height="24" viewBox="0 0 24 24" fill="none" xmlns="http://www.w3.org/2000/svg">
<path d="M12.5 3C10.1136 3 7.82281 3.9488 6.13672 5.63602C4.44889 7.3239 3.50047 9.613 3.5 12C3.5 14.386 4.44922 16.6768 6.13672 18.364C7.82281 20.0512 10.1136 21 12.5 21C14.8864 21 17.1772 20.0512 18.8633 18.364C20.5508 16.6768 21.5 14.386 21.5 12C21.5 9.61402 20.5508 7.32323 18.8633 5.63602C17.1772 3.9488 14.8864 3 12.5 3Z" fill="url(#paint0_linear_231_63)"/>
<path d="M7.18735 11.8745C9.87221 10.6045 11.6621 9.76716 12.5571 9.36263C15.1153 8.20748 15.6462 8.00686 15.993 8.00006C16.0693 7.99873 16.239 8.0192 16.3498 8.11646C16.4419 8.1985 16.4678 8.30943 16.4808 8.38732C16.4923 8.46513 16.5081 8.64248 16.4952 8.78091C16.357 10.3622 15.757 14.1993 15.452 15.9704C15.3239 16.7198 15.0693 16.971 14.8232 16.9955C14.288 17.049 13.8822 16.6118 13.3643 16.2432C12.5542 15.6662 12.0966 15.3071 11.3096 14.7442C10.4003 14.0935 10.9902 13.7359 11.5082 13.1515C11.6434 12.9985 14.0002 10.6712 14.0448 10.4601C14.0506 10.4337 14.0563 10.3353 14.0017 10.2834C13.9484 10.2314 13.8693 10.2492 13.8117 10.2632C13.7297 10.2832 12.4362 11.2126 9.92688 13.0512C9.55998 13.3253 9.22761 13.4588 8.92833 13.4518C8.60028 13.4442 7.96719 13.2499 7.4967 13.084C6.92116 12.8804 6.46218 12.7728 6.50246 12.427C6.52261 12.247 6.75138 12.0628 7.18735 11.8745Z" fill="#FAFAFA"/>
<defs>
<linearGradient id="paint0_linear_231_63" x1="903.5" y1="3" x2="903.5" y2="1803" gradientUnits="userSpaceOnUse">
<stop stop-color="#2AABEE"/>
<stop offset="1" stop-color="#229ED9"/>
</linearGradient>
</defs>
</svg>
