<svg width="24" height="24" viewBox="0 0 24 24" fill="none" xmlns="http://www.w3.org/2000/svg">
<rect x="7" y="7" width="10" height="10" fill="white"/>
<path fill-rule="evenodd" clip-rule="evenodd" d="M6.98908 4.88999C10.3247 4.62904 13.6755 4.62904 17.0111 4.88999L19.2511 5.06599C19.8578 5.11329 20.4312 5.36229 20.8799 5.77333C21.3286 6.18436 21.6269 6.73377 21.7271 7.33399C22.2441 10.424 22.2441 13.577 21.7271 16.666C21.6269 17.2661 21.3288 17.8153 20.8803 18.2264C20.4318 18.6374 19.8586 18.8865 19.2521 18.934L17.0121 19.109C13.6762 19.37 10.325 19.37 6.98908 19.109L4.74909 18.934C4.1424 18.8867 3.569 18.6377 3.12027 18.2267C2.67154 17.8156 2.3733 17.2662 2.27309 16.666C1.75695 13.5767 1.75695 10.4232 2.27309 7.33399C2.37325 6.73392 2.67135 6.18463 3.11987 5.77362C3.5684 5.3626 4.14157 5.1135 4.74809 5.06599L6.98808 4.89099L6.98908 4.88999ZM10.0001 14.47V9.52999C10.0002 9.47697 10.0143 9.42493 10.041 9.37915C10.0678 9.33337 10.1062 9.29549 10.1523 9.26937C10.1984 9.24326 10.2507 9.22983 10.3037 9.23047C10.3567 9.2311 10.4086 9.24577 10.4541 9.27299L14.5711 11.743C14.6154 11.7697 14.6521 11.8074 14.6775 11.8524C14.703 11.8974 14.7163 11.9483 14.7163 12C14.7163 12.0517 14.703 12.1026 14.6775 12.1476C14.6521 12.1926 14.6154 12.2303 14.5711 12.257L10.4541 14.727C10.4086 14.7542 10.3567 14.7689 10.3037 14.7695C10.2507 14.7701 10.1984 14.7567 10.1523 14.7306C10.1062 14.7045 10.0678 14.6666 10.041 14.6208C10.0143 14.5751 10.0002 14.523 10.0001 14.47Z" fill="#FF0000"/>
</svg>
