<svg width="24" height="24" viewBox="0 0 24 24" fill="none" xmlns="http://www.w3.org/2000/svg">
<path fill-rule="evenodd" clip-rule="evenodd" d="M6.98899 4.89005C10.3246 4.6291 13.6754 4.6291 17.011 4.89005L19.251 5.06605C19.8577 5.11335 20.4311 5.36235 20.8798 5.77339C21.3285 6.18442 21.6268 6.73383 21.727 7.33405C22.244 10.424 22.244 13.5771 21.727 16.666C21.6268 17.2661 21.3287 17.8154 20.8802 18.2264C20.4317 18.6374 19.8585 18.8865 19.252 18.934L17.012 19.109C13.6761 19.3701 10.3249 19.3701 6.98899 19.109L4.74899 18.934C4.1423 18.8868 3.5689 18.6377 3.12017 18.2267C2.67144 17.8157 2.37321 17.2663 2.27299 16.666C1.75686 13.5768 1.75686 10.4233 2.27299 7.33405C2.37316 6.73398 2.67125 6.1847 3.11978 5.77368C3.56831 5.36266 4.14148 5.11356 4.74799 5.06605L6.98799 4.89105L6.98899 4.89005ZM9.99999 14.47V9.53005C10.0001 9.47703 10.0142 9.42499 10.0409 9.37921C10.0677 9.33343 10.1061 9.29555 10.1522 9.26943C10.1983 9.24332 10.2506 9.22989 10.3036 9.23053C10.3566 9.23116 10.4085 9.24583 10.454 9.27305L14.571 11.743C14.6153 11.7697 14.652 11.8074 14.6774 11.8524C14.7029 11.8975 14.7162 11.9483 14.7162 12C14.7162 12.0518 14.7029 12.1026 14.6774 12.1476C14.652 12.1927 14.6153 12.2304 14.571 12.257L10.454 14.727C10.4085 14.7543 10.3566 14.7689 10.3036 14.7696C10.2506 14.7702 10.1983 14.7568 10.1522 14.7307C10.1061 14.7045 10.0677 14.6667 10.0409 14.6209C10.0142 14.5751 10.0001 14.5231 9.99999 14.47Z" fill="#FF0000"/>
</svg>
