<svg width="57" height="35" viewBox="0 0 57 35" fill="none" xmlns="http://www.w3.org/2000/svg">
<g clip-path="url(#clip0_224_195)">
<path d="M47.139 8.00001C44.783 8.00001 42.6217 8.82274 40.926 10.1939C39.1709 8.77171 36.9761 7.99668 34.713 8.00001C32.357 8.00001 30.1957 8.82274 28.5 10.1939C26.7449 8.77171 24.5501 7.99668 22.287 8.00001C19.931 8.00001 17.7697 8.82274 16.074 10.1939C14.6271 9.02518 12.8772 8.28839 11.027 8.06895C9.17674 7.84951 7.3019 8.15639 5.61967 8.95404C3.93744 9.75169 2.51668 11.0075 1.52197 12.5759C0.527264 14.1443 -0.000671387 15.9612 -0.000671387 17.816C-0.000671387 19.6708 0.527264 21.4877 1.52197 23.0561C2.51668 24.6245 3.93744 25.8803 5.61967 26.6779C7.3019 27.4756 9.17674 27.7825 11.027 27.563C12.8772 27.3436 14.6271 26.6068 16.074 25.438C17.7697 26.8092 19.931 27.632 22.287 27.632C24.643 27.632 26.8042 26.8092 28.5 25.438C30.1957 26.8092 32.357 27.632 34.713 27.632C37.069 27.632 39.2302 26.8092 40.926 25.438C42.1517 26.4281 43.5982 27.1108 45.1439 27.4288C46.6897 27.7468 48.2896 27.6908 49.8091 27.2654C51.3286 26.8401 52.7234 26.0579 53.8761 24.9845C55.0288 23.9111 55.9058 22.578 56.4335 21.0971C56.9611 19.6162 57.1239 18.0309 56.9081 16.4744C56.6924 14.9179 56.1045 13.4357 55.1938 12.1524C54.283 10.8691 53.0761 9.82213 51.6745 9.09956C50.2729 8.37698 48.7174 7.9999 47.139 8.00001ZM40.926 22.2275C40.0005 20.9411 39.5038 19.3982 39.5058 17.816C39.5058 16.1705 40.033 14.648 40.926 13.4045C41.819 14.648 42.3462 16.1705 42.3462 17.816C42.3462 19.4614 41.819 20.984 40.926 22.2275ZM28.5 22.2275C27.5745 20.9411 27.0778 19.3982 27.0798 17.816C27.0798 16.1705 27.607 14.648 28.5 13.4045C29.393 14.648 29.9202 16.1705 29.9202 17.816C29.9202 19.4614 29.393 20.984 28.5 22.2275ZM16.074 22.2275C15.1485 20.9411 14.6518 19.3982 14.6537 17.816C14.6537 16.1705 15.181 14.648 16.074 13.4045C16.967 14.648 17.4942 16.1705 17.4942 17.816C17.4942 19.4614 16.967 20.984 16.074 22.2275ZM2.22775 17.816C2.22831 16.3982 2.62737 15.0088 3.37979 13.805C4.13222 12.6011 5.20801 11.6309 6.4855 11.0039C7.76298 10.3769 9.19122 10.1182 10.6087 10.2571C12.0262 10.396 13.3763 10.9269 14.5065 11.7898C13.1562 13.5107 12.4237 15.6323 12.426 17.816C12.426 20.0879 13.205 22.1802 14.5065 23.8422C13.3763 24.7051 12.0262 25.236 10.6087 25.3748C9.19122 25.5137 7.76298 25.255 6.4855 24.6281C5.20801 24.0011 4.13222 23.0308 3.37979 21.827C2.62737 20.6232 2.22831 19.2338 2.22775 17.816ZM17.6415 23.8422C18.9918 22.1212 19.7243 19.9997 19.722 17.816C19.722 15.544 18.943 13.4518 17.6415 11.7898C18.973 10.7693 20.6066 10.2165 22.287 10.2176C24.035 10.2176 25.6452 10.8039 26.9325 11.7898C25.5815 13.5104 24.849 15.6322 24.852 17.816C24.852 20.0879 25.631 22.1802 26.9325 23.8422C25.6009 24.8626 23.9674 25.4155 22.287 25.4144C20.6064 25.4167 18.9724 24.8638 17.6415 23.8422ZM30.0675 23.8422C31.4185 22.1216 32.151 19.9998 32.148 17.816C32.148 15.544 31.369 13.4518 30.0675 11.7874C31.3547 10.8039 32.965 10.2152 34.713 10.2152C36.461 10.2152 38.0712 10.8015 39.3585 11.7874C38.0075 13.508 37.275 15.6298 37.278 17.8136C37.278 20.0856 38.057 22.1779 39.3585 23.8399C38.0269 24.8603 36.3934 25.4131 34.713 25.412C33.0325 25.4161 31.3982 24.8639 30.0675 23.8422ZM47.139 25.4144C45.4584 25.4167 43.8244 24.8638 42.4935 23.8422C43.8435 22.1211 44.5759 19.9996 44.574 17.816C44.574 15.544 43.795 13.4518 42.4935 11.7898C43.4558 11.0541 44.5804 10.5573 45.7741 10.3408C46.9678 10.1242 48.1962 10.194 49.3573 10.5443C50.5185 10.8947 51.579 11.5156 52.451 12.3555C53.323 13.1954 53.9812 14.2301 54.3712 15.3739C54.7611 16.5176 54.8716 17.7374 54.6934 18.9321C54.5151 20.1268 54.0534 21.262 53.3463 22.2436C52.6393 23.2252 51.7074 24.0248 50.6279 24.5763C49.5484 25.1277 48.3524 25.415 47.139 25.4144Z" fill="#FAFAFA"/>
</g>
<defs>
<clipPath id="clip0_224_195">
<rect width="57" height="35" fill="white"/>
</clipPath>
</defs>
</svg>
