<svg width="120" height="42" viewBox="0 0 120 42" fill="none" xmlns="http://www.w3.org/2000/svg">
<path d="M0 0H26.449H54L42.5073 19.9814H0V0Z" fill="#2C323D"/>
<path d="M56.1717 -0.000488281H120L108.971 19.981H45L56.1717 -0.000488281Z" fill="#1B69D3"/>
<path d="M20.212 28.1107C20.212 26.8379 19.785 25.8728 18.931 25.2154C18.217 24.6559 17.188 24.2922 15.844 24.1244C15.074 24.0265 13.814 23.9775 12.064 23.9775C8.564 23.9775 6.345 24.2713 5.407 24.8587C4.469 25.4462 4 26.8868 4 29.1807H6.142C6.142 27.6421 6.457 26.719 7.087 26.4113C7.717 26.0896 9.376 25.9287 12.064 25.9287C14.472 25.9287 16.075 26.0616 16.873 26.3274C17.671 26.5791 18.07 27.1736 18.07 28.1107C18.07 29.0059 17.769 29.6143 17.167 29.936C16.719 30.1738 15.956 30.2927 14.878 30.2927H8.263V32.2229H14.878C15.9 32.2229 16.656 32.3628 17.146 32.6425C17.762 32.9922 18.07 33.6146 18.07 34.5098C18.07 35.4469 17.65 36.0693 16.81 36.377C15.984 36.6708 14.402 36.8176 12.064 36.8176C9.39 36.8176 7.759 36.6708 7.171 36.377C6.485 36.0274 6.142 35.0832 6.142 33.5447H4C4 35.8245 4.476 37.2652 5.428 37.8666C6.38 38.4541 8.592 38.7478 12.064 38.7478C14.262 38.7478 15.739 38.6989 16.495 38.601C17.783 38.4331 18.707 38.0695 19.267 37.51C19.897 36.8806 20.212 35.8805 20.212 34.5098C20.212 33.6985 20.079 33.0481 19.813 32.5586C19.561 32.055 19.176 31.6634 18.658 31.3837C19.204 31.062 19.596 30.6703 19.834 30.2088C20.086 29.7472 20.212 29.0478 20.212 28.1107Z" fill="#FAFAFA"/>
<path d="M34.3673 24.1873L41.9273 38.538H39.5123L37.8113 35.349H27.5633L25.8833 38.538H23.4683L31.0283 24.1873H34.3673ZM36.8873 33.4398L32.9813 25.9077H32.4353L28.5293 33.4398H36.8873Z" fill="#FAFAFA"/>
<path d="M45.3759 24.1873H62.0079V38.538H59.8659V26.1176H47.5179V38.538H45.3759V24.1873Z" fill="#FAFAFA"/>
<path d="M76.5806 24.1873L84.1406 38.538H81.7256L80.0246 35.349H69.7766L68.0966 38.538H65.6816L73.2416 24.1873H76.5806ZM79.1006 33.4398L75.1946 25.9077H74.6486L70.7426 33.4398H79.1006Z" fill="#FAFAFA"/>
<path d="M89.5212 28.9919V24.2083H103.99V36.6078H105.019V41.9998H103.045V38.538H89.4162V41.9998H87.4422V36.6078H88.4922C88.7582 35.6847 88.9962 34.4188 89.2062 32.8103C89.4162 31.1878 89.5212 29.915 89.5212 28.9919ZM101.848 26.1385H91.6632V28.9919C91.6632 30.0829 91.5792 31.3767 91.4112 32.8733C91.2432 34.3699 91.0262 35.6147 90.7602 36.6078H101.848V26.1385Z" fill="#FAFAFA"/>
<path d="M12.0535 11.2692L9.6385 5.3347L5.7685 14.9857H4.5835L9.0385 4.0459H10.2685L14.8285 14.9857H13.5535L12.4735 12.3182H7.4485L7.8535 11.2692H12.0535Z" fill="#FAFAFA"/>
<path d="M21.8043 7.163C23.2143 7.163 23.9193 7.71249 23.9193 8.81147V9.47086C23.9193 10.1802 23.5893 10.6548 22.9293 10.8945C23.6493 11.1343 24.0093 11.6289 24.0093 12.3782V13.2773C24.0093 14.4163 23.3143 14.9857 21.9243 14.9857H16.2393V7.163H21.8043ZM17.3343 13.9067H21.7443C22.5243 13.9067 22.9143 13.592 22.9143 12.9626V12.3182C22.9143 11.6588 22.4493 11.3291 21.5193 11.3291H17.9343V10.5199H21.5193C22.4093 10.5199 22.8543 10.2152 22.8543 9.60574V9.05125C22.8543 8.4618 22.4543 8.16707 21.6543 8.16707H17.3343V13.9067Z" fill="#FAFAFA"/>
<path d="M33.1862 7.163V8.25699H29.9012V14.9857H28.7912V8.25699H25.4912V7.163H33.1862Z" fill="#FAFAFA"/>
<path d="M39.808 7.163C41.438 7.163 42.253 7.99723 42.253 9.66568V12.4831C42.253 14.1515 41.438 14.9857 39.808 14.9857H37.153C35.523 14.9857 34.708 14.1515 34.708 12.4831V9.66568C34.708 7.99723 35.523 7.163 37.153 7.163H39.808ZM35.803 12.3032C35.803 13.3722 36.323 13.9067 37.363 13.9067H39.598C40.638 13.9067 41.158 13.3722 41.158 12.3032V9.84551C41.158 8.7865 40.638 8.25699 39.598 8.25699H37.363C36.323 8.25699 35.803 8.7865 35.803 9.84551V12.3032Z" fill="#FAFAFA"/>
<path d="M55.0538 13.8189C55.4912 13.7763 55.8432 13.6324 56.1098 13.3873C56.3765 13.1422 56.5685 12.7479 56.6858 12.2044L57.8058 6.6416H63.2138V13.8189H64.4778V17.5115H63.4218V14.9859H55.4378V17.5115H54.3818V13.8189H55.0538ZM62.0458 13.8349V7.80852H58.6698L57.6938 12.5721C57.6405 12.8279 57.5765 13.0623 57.5018 13.2754C57.4272 13.4779 57.3365 13.6644 57.2298 13.8349H62.0458Z" fill="#FAFAFA"/>
<path d="M67.3075 6.6416V13.2595L72.9395 6.6416H74.1075V14.9859H72.9395V8.32004L67.3075 14.9859H66.1395V6.6416H67.3075Z" fill="#FAFAFA"/>
<path d="M84.6534 6.6416V14.9859H83.4853V7.80852H80.1093L79.1333 12.5721C78.952 13.4246 78.6373 14.0427 78.1893 14.4264C77.7413 14.7994 77.1013 14.9859 76.2693 14.9859H75.8213V13.8349H76.2053C76.728 13.8349 77.144 13.7177 77.4533 13.4832C77.7733 13.2381 77.9973 12.8119 78.1253 12.2044L79.2453 6.6416H84.6534Z" fill="#FAFAFA"/>
<path d="M92.3441 6.6416C93.8374 6.6416 94.5841 7.37692 94.5841 8.84755V9.51893C94.5841 10.7445 93.8801 11.3572 92.4721 11.3572H88.6001V10.4141H92.1521C93.0161 10.4141 93.4481 10.0464 93.4481 9.31112V8.92748C93.4481 8.07494 93.0108 7.64867 92.1361 7.64867H89.6081C88.5094 7.64867 87.9601 8.21347 87.9601 9.34309V12.2044C87.9601 13.3021 88.4934 13.8509 89.5601 13.8509H94.3121V14.9859H89.4161C87.6774 14.9859 86.8081 14.096 86.8081 12.3163V9.31112C86.8081 7.53144 87.6774 6.6416 89.4161 6.6416H92.3441Z" fill="#FAFAFA"/>
<path d="M102.02 6.6416C103.759 6.6416 104.628 7.53144 104.628 9.31112V12.3163C104.628 14.096 103.759 14.9859 102.02 14.9859H98.4685V13.8349H101.796C102.906 13.8349 103.46 13.2648 103.46 12.1245V9.50294C103.46 8.37333 102.906 7.80852 101.796 7.80852H99.4765C98.3778 7.80852 97.8285 8.37333 97.8285 9.50294V17.8152H96.6605V9.31112C96.6605 7.53144 97.5298 6.6416 99.2685 6.6416H102.02Z" fill="#FAFAFA"/>
</svg>
