<svg width="57" height="35" viewBox="0 0 57 35" fill="none" xmlns="http://www.w3.org/2000/svg">
<path d="M28.5 8.748C13.946 8.748 2.14937 12.7712 2.14937 17.6922C2.14937 22.6132 13.946 26.6341 28.5 26.6341C43.0516 26.6341 54.8483 22.6132 54.8483 17.6922C54.8483 12.7689 43.0516 8.748 28.5 8.748ZM14.9672 23.568C13.4093 23.5799 12.0389 22.618 11.8797 20.9531C11.7893 20.0856 12.0397 19.2169 12.578 18.5306C13.0411 17.9274 13.8249 17.4263 14.4875 17.3028C14.7013 17.2624 14.9934 17.2885 15.1145 17.431C15.3021 17.6519 15.2475 17.8918 15.0599 17.9868C14.554 18.2456 13.9436 18.6874 13.642 19.293C13.5038 19.5498 13.4383 19.8395 13.4526 20.1307C13.4668 20.422 13.5602 20.7039 13.7227 20.946C14.3474 21.8889 16.0906 21.915 17.7104 20.4116C18.1117 20.0411 18.4704 19.6896 18.8337 19.2716C19.5462 18.4546 19.7837 18.1554 20.7337 16.8396C20.7456 16.8254 20.748 16.8064 20.7432 16.7969C20.7361 16.7802 20.7219 16.7731 20.6957 16.7731C20.0616 16.7897 19.5082 16.9797 18.9739 17.3787C18.8195 17.4928 18.5963 17.4761 18.4989 17.3289C18.3896 17.1626 18.468 16.9417 18.6461 16.8182C19.5082 16.2174 20.4511 16.1105 21.4154 15.9466C21.4154 15.9466 21.4819 15.9514 21.5365 15.8754C21.9331 15.3695 22.23 14.9135 22.6528 14.4005C23.0755 13.878 23.6265 13.403 24.0445 13.042C24.6287 12.5385 25.004 12.3699 25.384 12.1632C25.4861 12.111 25.3721 12.0469 25.3412 12.0469C23.2132 11.6479 21.0021 11.1301 18.8884 11.9139C17.4254 12.4601 16.7817 13.6191 17.0905 14.3958C17.3114 14.9444 18.0334 15.037 18.7126 14.7045C19.3033 14.4116 19.8045 13.9653 20.1637 13.4125C20.3704 13.0942 20.805 13.3223 20.5699 13.8756C19.9524 15.3268 18.772 16.481 17.3328 16.5309C16.1073 16.5689 15.3164 15.6688 15.3187 14.5573C15.3235 12.3628 17.765 10.9188 20.33 10.705C23.4199 10.4485 26.3459 11.2726 29.4144 11.6431C31.7633 11.9281 34.0171 11.9352 36.3779 11.3914C36.6581 11.332 36.8529 11.5101 36.8363 11.7904C36.8125 12.1989 36.4966 12.5907 35.72 13.0159C34.8341 13.5004 33.9079 13.6476 32.9412 13.6571C30.6042 13.6761 28.4264 12.7641 26.1725 12.2749C26.1773 12.3722 26.201 12.491 26.1179 12.5528C24.871 13.4743 23.7429 14.41 22.9876 15.721C22.9615 15.7519 22.9758 15.7804 23.0185 15.778C23.6764 15.7424 24.2654 15.7258 24.8781 15.6783C24.985 15.6688 24.9897 15.6426 24.9802 15.5642C24.9467 15.3214 24.9724 15.0741 25.0551 14.8433C25.1378 14.6126 25.2751 14.4052 25.4553 14.239C25.8638 13.8756 26.3744 13.8352 26.714 14.0965C27.094 14.3957 27.0631 14.9349 26.8517 15.3386C26.7576 15.5159 26.6288 15.6725 26.473 15.799C26.3171 15.9255 26.1374 16.0193 25.9445 16.0749C25.9445 16.0749 25.8732 16.0891 25.8827 16.1556C25.897 16.2577 26.3577 16.5142 26.3981 16.5831C26.4385 16.6472 26.4171 16.7494 26.3482 16.8254C26.3209 16.8588 26.2864 16.8856 26.2474 16.9041C26.2084 16.9226 26.1658 16.9322 26.1226 16.9323C26.0442 16.9323 25.9967 16.9038 25.8946 16.8491C25.6502 16.7195 25.4326 16.5446 25.2534 16.3338C25.1964 16.2601 25.1655 16.2578 25.0183 16.2649C24.3556 16.3053 23.3225 16.405 22.6219 16.4929C22.4532 16.5119 22.4271 16.5451 22.3939 16.6045C21.2776 18.4451 20.0854 20.4282 18.7768 21.7582C17.3708 23.1832 16.2046 23.5585 14.9672 23.568ZM45.2437 14.6238C45.0276 14.999 40.8524 21.3545 40.5887 22.01C40.5056 22.219 40.4938 22.3781 40.5793 22.4945C40.7978 22.789 41.2846 22.6156 41.5886 22.4043C42.4935 21.782 43.1205 21.0268 43.814 20.3665C43.8544 20.3356 43.9233 20.3238 43.9684 20.3665C44.0705 20.4615 44.2201 20.5826 44.3246 20.6919C44.3339 20.7004 44.3414 20.7107 44.3467 20.7221C44.352 20.7336 44.3549 20.746 44.3554 20.7586C44.3558 20.7712 44.3537 20.7837 44.3493 20.7955C44.3448 20.8073 44.3381 20.8181 44.3294 20.8272C43.6949 21.6247 42.9749 22.3503 42.1824 22.9909C41.0661 23.8554 39.9523 24.0763 39.3989 23.5229C39.2037 23.3193 39.0861 23.0537 39.0664 22.7724C39.0616 22.637 38.9928 22.6299 38.9286 22.6916C38.2684 23.3448 37.1236 24.0667 36.0834 23.5514C35.2141 23.1239 35.0123 22.0836 35.1738 21.2096C35.1761 21.1906 35.1595 21.0671 35.0526 21.1384C34.8333 21.2978 34.5937 21.4272 34.3401 21.5231C34.0675 21.6476 33.7706 21.7101 33.4709 21.706C33.2553 21.7085 33.043 21.6542 32.855 21.5488C32.667 21.4433 32.51 21.2903 32.3997 21.1051C32.2596 20.8525 32.1822 20.5698 32.1741 20.281C32.1717 20.2549 32.1338 20.205 32.0957 20.2691C31.3832 21.3545 30.7206 22.4042 30.0176 23.5063C29.9796 23.5585 29.9464 23.5918 29.8751 23.5941L28.481 23.5965C28.3955 23.5965 28.3551 23.53 28.4002 23.4469C28.6473 22.9719 30.001 21.0006 30.9177 19.3239C31.1719 18.8631 31.1196 18.6256 30.9629 18.5235C30.7657 18.3953 30.3739 18.5876 30.0437 18.8394C29.1436 19.521 28.3884 20.585 28.0036 21.06C27.778 21.3379 27.5642 21.7511 26.9753 22.39C26.0466 23.3994 24.814 23.9789 23.6313 23.5775C23.3188 23.4716 23.0372 23.2907 22.8111 23.0505C22.585 22.8103 22.4213 22.5182 22.3345 22.2C22.2989 22.0765 22.23 22.0433 22.1611 22.124C21.9711 22.3615 21.5793 22.7154 21.2515 22.9362C21.2159 22.9624 21.128 23.0146 21.052 22.9766C20.909 22.8377 20.7874 22.6785 20.691 22.504C20.6767 22.4723 20.6726 22.437 20.6795 22.4029C20.6863 22.3688 20.7036 22.3377 20.729 22.314C21.1969 21.9031 21.4534 21.6704 21.6576 21.4115C21.8096 21.2215 21.926 21.0078 22.0614 20.6634C22.3464 19.9461 22.9948 18.6066 24.2891 17.9131C24.7673 17.6424 25.293 17.4658 25.8376 17.393C26.0751 17.3693 26.2722 17.3978 26.3435 17.583C26.3696 17.6614 26.4361 17.8324 26.4765 17.9583C26.5026 18.0343 26.4836 18.0936 26.3934 18.1269C25.6334 18.4166 24.8663 18.8655 24.339 19.5756C23.7381 20.3784 23.5766 21.3474 23.978 21.9031C24.2701 22.3069 24.7427 22.3781 25.1987 22.2332C25.8875 22.0147 26.4765 21.3711 26.7805 20.6586C27.1082 19.8773 27.1605 18.9558 26.9182 18.1435C26.8802 18.0034 26.9159 17.8965 27.0061 17.8205C27.189 17.6709 27.4431 17.5545 27.5168 17.5165C27.5893 17.4777 27.6736 17.4672 27.7534 17.4869C27.8332 17.5066 27.9029 17.5553 27.949 17.6234C28.2007 17.9962 28.3361 18.5211 28.3527 19.065C28.367 19.1814 28.4145 19.1837 28.4715 19.1244C28.9228 18.6446 29.3407 18.1316 29.8205 17.7469C30.2599 17.3977 30.8228 17.1127 31.3476 17.1246C32.0269 17.1389 32.3641 17.5996 32.3428 18.4214C32.3404 18.5259 32.414 18.5164 32.4639 18.4475C32.6213 18.211 32.8134 17.9997 33.0339 17.8205C33.5041 17.4334 33.9839 17.26 34.485 17.2932C35.1025 17.3407 35.5965 17.9036 35.4944 18.5449C35.4697 18.7477 35.3961 18.9415 35.2798 19.1095C35.1636 19.2775 35.0081 19.4146 34.827 19.5091C34.6747 19.5902 34.5015 19.6237 34.33 19.605C34.1584 19.5864 33.9965 19.5166 33.8651 19.4046C33.7633 19.3084 33.6887 19.187 33.6487 19.0528C33.6086 18.9186 33.6047 18.7761 33.6371 18.6399C33.649 18.5805 33.573 18.5259 33.5089 18.5924C32.9056 19.2194 32.8605 20.0316 33.2547 20.3974C33.6894 20.8011 34.3425 20.5304 34.8175 20.2192C35.6867 19.6516 36.3612 18.8821 37.1426 18.2884C37.6604 17.8941 38.2518 17.5426 38.9144 17.4548C39.2784 17.3991 39.6506 17.4417 39.9926 17.5783C40.4676 17.7706 40.7669 18.172 40.8049 18.5188C40.8144 18.6209 40.8904 18.6327 40.9545 18.5425C41.3298 17.9582 43.3414 14.9396 43.5076 14.6238C43.5551 14.5264 43.6121 14.5121 43.719 14.5121H45.1582C45.2414 14.5121 45.2794 14.5596 45.2437 14.6238ZM39.7337 19.8582C39.719 19.8878 39.7165 19.9219 39.7266 19.9533C39.7337 20.0008 39.7979 20.0482 39.8596 20.072C39.8834 20.0791 39.8953 20.0958 39.8691 20.148C39.691 20.528 39.5295 20.7465 39.3062 21.0766C39.109 21.3683 38.8688 21.6286 38.5938 21.8485C38.171 22.1976 37.5868 22.5776 37.1022 22.3235C36.8885 22.2119 36.7935 21.9102 36.8006 21.668C36.8101 20.984 37.1141 20.281 37.677 19.5899C38.361 18.7467 39.1186 18.3097 39.615 18.5496C40.128 18.7942 39.9665 19.3927 39.7337 19.8582ZM25.6049 15.3909C25.587 15.2391 25.6062 15.0853 25.6608 14.9426C25.7154 14.7999 25.8038 14.6726 25.9184 14.5715C26.0538 14.4527 26.2343 14.4243 26.3459 14.5193C26.4694 14.6261 26.41 14.8921 26.2841 15.075C26.1474 15.2809 25.9407 15.4303 25.7022 15.4954C25.6595 15.5049 25.6215 15.4859 25.6049 15.3909ZM28.5 7C12.6825 7 0 11.7429 0 17.6875C0 23.5965 12.7846 28.375 28.5 28.375C44.2154 28.375 57 23.5775 57 17.6875C57 11.7975 44.2154 7 28.5 7ZM28.5 27.444C13.4164 27.444 1.1875 23.0787 1.1875 17.6922C1.1875 12.3034 13.4187 7.93812 28.5 7.93812C43.5812 7.93812 55.8077 12.3034 55.8077 17.6922C55.8077 23.0787 43.5812 27.444 28.5 27.444Z" fill="#FAFAFA"/>
</svg>
