<svg width="45" height="45" viewBox="0 0 45 45" fill="none" xmlns="http://www.w3.org/2000/svg">
<path d="M33.6281 11.3651C32.246 9.97597 30.5998 8.87459 28.7854 8.12516C26.971 7.37574 25.0248 6.99328 23.0603 7.00009C14.8291 7.00009 8.1206 13.6751 8.1206 21.865C8.1206 24.49 8.81407 27.04 10.1106 29.29L8 37L15.9146 34.93C18.1005 36.115 20.5578 36.745 23.0603 36.745C31.2915 36.745 38 30.07 38 21.88C38 17.9051 36.4472 14.1701 33.6281 11.3651ZM23.0603 34.225C20.8291 34.225 18.6432 33.625 16.7286 32.5L16.2764 32.23L11.5729 33.46L12.8241 28.9L12.5226 28.435C11.283 26.4655 10.6248 24.1889 10.6231 21.865C10.6231 15.0551 16.201 9.50508 23.0452 9.50508C26.3618 9.50508 29.4824 10.7951 31.8191 13.1351C32.9761 14.281 33.893 15.6441 34.5167 17.1452C35.1403 18.6463 35.4583 20.2557 35.4523 21.88C35.4824 28.69 29.9045 34.225 23.0603 34.225ZM29.8744 24.985C29.4975 24.805 27.6583 23.905 27.3266 23.77C26.9799 23.65 26.7387 23.59 26.4824 23.95C26.2261 24.325 25.5176 25.165 25.3065 25.405C25.0955 25.66 24.8693 25.69 24.4925 25.495C24.1156 25.315 22.9095 24.91 21.4925 23.65C20.3769 22.66 19.6382 21.445 19.4121 21.07C19.201 20.695 19.3819 20.5 19.5779 20.305C19.7437 20.14 19.9548 19.8701 20.1357 19.6601C20.3166 19.4501 20.392 19.2851 20.5126 19.0451C20.6332 18.7901 20.5729 18.5801 20.4824 18.4001C20.392 18.2201 19.6382 16.3901 19.3367 15.6401C19.0352 14.9201 18.7186 15.0101 18.4925 14.9951H17.7688C17.5126 14.9951 17.1206 15.0851 16.7739 15.4601C16.4422 15.8351 15.4774 16.7351 15.4774 18.5651C15.4774 20.3951 16.8191 22.165 17 22.405C17.1809 22.66 19.6382 26.41 23.3769 28.015C24.2663 28.405 24.9598 28.63 25.5025 28.795C26.392 29.08 27.206 29.035 27.8543 28.945C28.5779 28.84 30.0703 28.045 30.3719 27.175C30.6884 26.305 30.6884 25.57 30.5829 25.405C30.4774 25.24 30.2513 25.165 29.8744 24.985Z" fill="#A2A3A4"/>
</svg>
