<svg width="35" height="35" viewBox="0 0 35 35" fill="none" xmlns="http://www.w3.org/2000/svg">
<path fill-rule="evenodd" clip-rule="evenodd" d="M12.8482 0.535289C9.61387 1.59986 6.31674 3.68835 4.3884 5.89413C-1.87522 13.0594 -1.37639 23.8631 5.51685 30.3392C9.39223 33.9797 12.0359 34.9969 17.6309 35C21.6999 35.0021 22.6846 34.8144 25.2628 33.5428C29.0094 31.6947 32.5427 27.794 33.9987 23.8991C35.4827 19.9275 35.2943 13.7007 33.5845 10.1994C30.6336 4.15807 25.2259 0.486283 18.64 0.052529C16.3571 -0.098138 14.2336 0.0791174 12.8482 0.535289ZM16.2486 8.80529C15.7181 12.3181 15.2286 15.4826 15.1601 15.8387C15.0916 16.1942 12.5829 18.4798 9.58532 20.917L4.13509 25.3489L3.36116 23.6588C2.17093 21.0599 2.3116 13.6491 3.60097 11.021C5.88332 6.3696 11.2069 2.57268 15.605 2.46007L17.2131 2.41889L16.2486 8.80529ZM24.3996 3.76551C29.8119 6.3404 33.2492 12.402 32.8002 18.5804C32.5619 21.8539 31.6266 24.8365 30.8371 24.8365C30.6268 24.8365 28.1239 22.968 25.2752 20.6845L20.096 16.5321L19.2115 10.6487C18.7251 7.4128 18.1951 4.20291 18.0337 3.51579C17.7508 2.3141 17.8276 2.27604 20.042 2.5268C21.308 2.67017 23.269 3.22748 24.3996 3.76551ZM24.1945 23.4945C27.4221 24.764 30.1353 26.0199 30.2235 26.2853C30.4805 27.06 26.2786 30.5895 23.6635 31.7953C20.0845 33.4459 14.3582 33.3129 10.883 31.4981C8.03434 30.0108 4.49688 26.6481 5.11665 26.0173C5.69126 25.4324 16.4433 21.2497 17.4596 21.2158C17.9361 21.2001 20.967 22.2256 24.1945 23.4945Z" fill="#FAFAFA"/>
</svg>
