<svg width="35" height="35" viewBox="0 0 35 35" fill="none" xmlns="http://www.w3.org/2000/svg">
<g clip-path="url(#clip0_224_348)">
<path d="M17.4592 0C16.4651 0.00469786 15.4717 0.048969 14.4812 0.132708C12.3936 0.305481 10.3224 0.639463 8.28624 1.13167C6.81046 1.50465 5.36108 1.97527 3.9477 2.54042L3.8602 2.5725C3.8602 2.5725 4.03228 13.1352 4.16645 18.3677C4.20101 19.9082 4.48113 21.4334 4.99624 22.8856C5.59236 24.5379 6.38663 26.1117 7.36166 27.5727C8.38174 29.0814 9.61576 30.4339 11.025 31.5875C11.5759 32.0496 12.1566 32.4749 12.7633 32.8606C13.7149 33.4356 14.7084 33.9382 15.7354 34.3642C16.0752 34.5071 16.3712 34.6442 16.6396 34.736C16.9201 34.8433 17.2076 34.9315 17.5 35C17.7924 34.931 18.0799 34.8423 18.3604 34.7346C18.6258 34.6427 18.9248 34.5071 19.2646 34.3627C20.291 33.9366 21.284 33.434 22.2352 32.8592C22.8429 32.4734 23.4246 32.0482 23.9764 31.586C25.3851 30.4328 26.6186 29.0809 27.6383 27.5727C28.6135 26.1118 29.4078 24.5379 30.0037 22.8856C30.5193 21.4334 30.8 19.9083 30.835 18.3677C30.9677 13.1352 31.1412 2.57833 31.1412 2.57833C31.1142 2.56433 31.0864 2.55168 31.0581 2.54042C29.6443 1.9752 28.1944 1.50458 26.7181 1.13167C24.6819 0.639943 22.6107 0.306448 20.5231 0.134167C19.5326 0.0505288 18.5392 0.00577213 17.5452 0L17.4592 0ZM17.4592 0.526458H17.5423C18.5325 0.538125 19.4206 0.570208 20.405 0.657708C22.4124 0.82479 24.4037 1.14806 26.3608 1.62458C27.7805 1.98654 29.1744 2.44304 30.5331 2.99104C30.5614 3.00179 30.5892 3.01396 30.6162 3.0275L30.5608 6.34375C30.5521 6.33802 30.5428 6.33314 30.5331 6.32917C29.1748 5.78131 27.7814 5.32481 26.3623 4.96271C24.4046 4.48675 22.4128 4.16397 20.405 3.99729C19.4206 3.90979 18.5369 3.85146 17.5467 3.83979H17.4621C16.4719 3.85292 15.5808 3.90979 14.5964 3.99729C12.589 4.16547 10.5977 4.48971 8.64062 4.96708C7.22093 5.32958 5.82706 5.78657 4.46832 6.335C4.45815 6.33891 4.44839 6.34379 4.43916 6.34958L4.38374 3.02312L4.46832 2.99104C5.82659 2.44309 7.21997 1.98659 8.63916 1.62458C10.5972 1.1474 12.5895 0.823637 14.5979 0.65625C15.5823 0.56875 16.4689 0.539583 17.4592 0.526458ZM17.8792 0.841458C17.4407 0.833455 17.002 0.837345 16.5637 0.853125C16.3873 0.860417 16.1437 1.01208 16.1408 1.18854L16.1306 2.13354C16.1277 2.32604 16.3814 2.47771 16.5754 2.48208C17.2492 2.49667 17.8442 2.485 18.4975 2.52583C18.5456 2.53021 18.5879 2.55938 18.5879 2.6075L18.5835 2.79708C18.5844 2.80598 18.5833 2.81497 18.5804 2.82341C18.5774 2.83185 18.5726 2.83953 18.5664 2.84593C18.5601 2.85232 18.5525 2.85727 18.5442 2.86042C18.5358 2.86357 18.5268 2.86485 18.5179 2.86417C17.7581 2.86417 16.9633 2.82771 16.1948 2.88896C16.1539 2.89188 16.1554 2.88167 16.1539 2.9225L16.1189 3.4825L16.116 3.52625C17.0301 3.47345 17.9465 3.47345 18.8606 3.52625C18.9673 3.52301 19.0696 3.48332 19.1505 3.41379C19.2314 3.34427 19.2861 3.24911 19.3054 3.14417L19.3142 2.22979C19.3142 2.04167 19.0837 1.90313 18.9335 1.89438C18.2889 1.85354 17.5554 1.87542 16.9006 1.85792C16.8915 1.85756 16.8826 1.85536 16.8744 1.85145C16.8662 1.84755 16.8589 1.84202 16.8529 1.8352C16.8469 1.82839 16.8424 1.82042 16.8395 1.81179C16.8367 1.80316 16.8357 1.79405 16.8364 1.785L16.8496 1.57354C16.8496 1.53271 16.8773 1.52104 16.9181 1.51958C17.5656 1.49625 18.5325 1.52688 19.196 1.54729C19.2203 1.5432 19.2423 1.53074 19.2583 1.51209C19.2743 1.49344 19.2832 1.46977 19.2835 1.44521V0.982917C19.2835 0.958125 19.2369 0.885208 19.1917 0.88375C18.7544 0.864191 18.3168 0.84912 17.8792 0.841458ZM15.1375 0.934792C14.5206 0.946458 13.1819 1.11708 12.4221 1.21187L12.4177 3.85V3.88354L13.1031 3.79604C13.106 3.79572 13.1088 3.79477 13.1114 3.79326C13.1139 3.79175 13.116 3.78971 13.1177 3.78729C13.121 3.78318 13.1226 3.77795 13.1221 3.77271V3.01L14.5031 2.86125C14.6242 2.83938 14.7656 2.92833 14.8764 3.10771C14.9651 3.25938 15.0217 3.42765 15.0427 3.60208L15.7237 3.55104C15.7383 3.55104 15.7675 3.55104 15.7646 3.53646C15.7444 3.1688 15.5842 2.82283 15.3169 2.56958C15.4059 2.53356 15.4814 2.47062 15.5329 2.38957C15.5844 2.30852 15.6093 2.21339 15.6042 2.1175C15.6113 1.84293 15.6006 1.56818 15.5721 1.295C15.5488 1.19527 15.4933 1.10598 15.4143 1.04088C15.3352 0.975787 15.2369 0.938508 15.1346 0.934792H15.1375ZM20.3729 0.9625C20.231 0.957083 20.092 1.00309 19.9813 1.09204C19.8706 1.181 19.7958 1.30693 19.7706 1.44667L19.756 3.18938C19.7607 3.28811 19.7973 3.38264 19.8605 3.45868C19.9236 3.53472 20.0098 3.58813 20.106 3.61083C20.9956 3.69396 21.8706 3.77417 22.8623 3.92438C22.8783 3.92438 22.9089 3.91417 22.9089 3.89958V3.29292C22.9089 3.27979 22.8798 3.25208 22.8696 3.24917C22.2075 3.16604 21.3339 3.04938 20.5523 2.96771C20.5291 2.96208 20.5083 2.9491 20.493 2.93071C20.4778 2.91231 20.4689 2.88948 20.4677 2.86563V1.68146C20.4677 1.63188 20.5406 1.60563 20.5902 1.60854C21.3617 1.67271 22.1302 1.81271 22.9002 1.89583C22.9206 1.89875 22.9527 1.88563 22.9542 1.86521L22.9687 1.30813C22.9678 1.29664 22.9631 1.28577 22.9555 1.27711C22.9479 1.26845 22.9377 1.26245 22.9264 1.26C22.0783 1.14025 21.2259 1.04105 20.3729 0.9625ZM23.2604 1.30813C23.2429 1.30813 23.2283 1.32854 23.2283 1.34458C23.2196 1.74417 23.1627 3.46938 23.151 3.92875V3.96813C23.3771 4.0075 23.6264 4.03813 23.8117 4.07604C23.8321 4.07896 23.8627 4.06437 23.8627 4.04396C23.8598 3.74208 23.8627 3.39063 23.8569 3.11646C23.8569 3.0975 23.8656 3.09604 23.886 3.09896C24.4236 3.19631 24.9594 3.30327 25.4931 3.41979C25.5048 3.41979 25.5689 3.43 25.5689 3.46354C25.5646 3.78 25.5587 4.04688 25.55 4.36333C25.5495 4.37597 25.5531 4.38843 25.5602 4.39891C25.5673 4.40939 25.5775 4.41736 25.5894 4.42167C25.8008 4.46979 26.0021 4.51937 26.2019 4.5675C26.2558 4.57917 26.2646 4.56896 26.266 4.55C26.2981 3.89229 26.3098 2.83792 26.3185 1.94833C26.3185 1.93667 26.3142 1.91917 26.3039 1.91625C26.0808 1.86521 25.8708 1.81125 25.6433 1.76313C25.6229 1.75875 25.6112 1.79229 25.6098 1.81417C25.5879 2.13937 25.5967 2.44125 25.5719 2.765C25.5719 2.77667 25.5719 2.7825 25.5587 2.77958C25.0192 2.66875 24.4431 2.54917 23.9079 2.44854C23.8933 2.44563 23.8992 2.41938 23.9006 2.40333L23.905 1.45104C23.9043 1.44062 23.9002 1.43072 23.8933 1.42283C23.8865 1.41494 23.8773 1.40948 23.8671 1.40729C23.6647 1.37239 23.4634 1.33933 23.2604 1.30813ZM11.5704 1.34167C11.5524 1.34057 11.5344 1.34057 11.5164 1.34167C10.7246 1.46708 9.92832 1.63479 9.12478 1.80833C8.99592 1.84567 8.87986 1.91783 8.78937 2.01688C8.70483 2.09494 8.6519 2.20132 8.64062 2.31583L8.64645 3.94625C8.65261 4.08932 8.7071 4.22607 8.80103 4.33417C8.83304 4.38385 8.87711 4.42462 8.92913 4.45267C8.98116 4.48072 9.03943 4.49514 9.09853 4.49458C9.88886 4.32043 10.6829 4.16338 11.48 4.02354C11.6331 3.9874 11.7703 3.90243 11.8708 3.78146C11.9568 3.69017 12.0074 3.57127 12.0137 3.44604L12.0108 1.75C12.0057 1.69335 11.9887 1.6384 11.9611 1.58868C11.9335 1.53896 11.8958 1.49555 11.8504 1.46125C11.7741 1.39086 11.6755 1.34955 11.5719 1.34458L11.5704 1.34167ZM14.716 1.62896C14.7447 1.62733 14.7729 1.63691 14.7947 1.65568C14.8165 1.67446 14.8301 1.70096 14.8327 1.72958L14.8371 2.00521C14.8361 2.06288 14.8152 2.11845 14.778 2.16254C14.7408 2.20664 14.6896 2.23657 14.6329 2.24729L13.0842 2.39896L13.071 2.38729V1.79375L13.0842 1.78792L14.7044 1.63042C14.7083 1.63021 14.7121 1.63021 14.716 1.63042V1.62896ZM11.041 2.05187C11.081 2.05307 11.1201 2.06409 11.1548 2.08396C11.1805 2.10033 11.2014 2.12331 11.2153 2.15049C11.2291 2.17768 11.2354 2.20809 11.2335 2.23854L11.2204 3.26521C11.2217 3.2946 11.2159 3.32389 11.2035 3.35055C11.191 3.37722 11.1723 3.40047 11.1489 3.41833C11.0965 3.45397 11.0367 3.47739 10.9739 3.48688C10.4901 3.58326 10.0054 3.67562 9.51999 3.76396C9.49809 3.76945 9.47525 3.77008 9.45307 3.76579C9.4309 3.76151 9.40994 3.75242 9.39166 3.73917C9.3749 3.71907 9.36239 3.69578 9.35487 3.67072C9.34736 3.64566 9.34499 3.61934 9.34791 3.59333V2.53458C9.34873 2.48174 9.36957 2.43118 9.40624 2.39313C9.45521 2.34811 9.51585 2.31779 9.58124 2.30562C10.0042 2.22688 10.5583 2.1175 10.9929 2.05479C11.0088 2.05223 11.0249 2.05125 11.041 2.05187ZM26.8056 2.05187L26.8042 2.05333C26.7925 2.05333 26.7925 2.07083 26.7925 2.08104C26.7721 2.96479 26.7487 3.78292 26.7414 4.66667C26.7414 4.68563 26.7502 4.71042 26.7677 4.71479C27.8334 5.00132 28.8838 5.34204 29.9148 5.73563C29.9614 5.75167 29.96 5.71667 29.96 5.70354C29.9644 5.50229 29.9746 5.29812 29.9644 5.09688C29.9631 5.08634 29.9591 5.07633 29.9527 5.06787C29.9462 5.05942 29.9377 5.05282 29.9279 5.04875C29.1354 4.74349 28.3273 4.48014 27.5071 4.25979C27.4991 4.25709 27.4922 4.252 27.4872 4.24522C27.4823 4.23843 27.4795 4.23028 27.4794 4.22188L27.491 3.95937C27.491 3.94771 27.5114 3.94479 27.5231 3.94771C28.3452 4.17844 29.1576 4.44213 29.9585 4.73813C29.9731 4.7425 29.9731 4.72354 29.9731 4.71042C29.9835 4.48304 29.9835 4.2553 29.9731 4.02792C29.9726 4.01939 29.9696 4.01121 29.9644 4.00444C29.9592 3.99767 29.9521 3.99264 29.944 3.99C29.1582 3.70395 28.3613 3.44951 27.5552 3.22729C27.5435 3.22438 27.5289 3.21271 27.5289 3.20104V2.92104C27.5289 2.90938 27.5479 2.90208 27.5596 2.90646C28.3821 3.11646 29.2862 3.43146 29.9148 3.66333C29.9702 3.68375 30.0023 3.675 30.0023 3.62396C30.0023 3.395 30.011 3.37896 29.9994 3.15146C29.9964 3.12229 29.9935 3.09313 29.9673 3.08292C28.932 2.6832 27.8761 2.33903 26.8042 2.05187H26.8056ZM7.89103 2.14521C7.84983 2.14483 7.80872 2.14923 7.76853 2.15833C6.82062 2.40042 5.86832 2.76208 4.91603 3.10917C4.90301 3.11717 4.89218 3.1283 4.88454 3.14154C4.8769 3.15478 4.87269 3.16972 4.87228 3.185V5.32292L4.87666 5.80417C4.87666 5.80417 5.56353 5.54604 5.71228 5.49792C5.73124 5.49208 5.73124 5.47313 5.73124 5.45271L5.71666 4.69438C5.71666 4.6725 5.71957 4.64042 5.73999 4.63604L8.10978 3.90396C8.1895 3.87499 8.25931 3.82389 8.31103 3.75667C8.36265 3.69231 8.38955 3.61162 8.38687 3.52917L8.36207 2.53313C8.35591 2.47546 8.33717 2.41986 8.30719 2.37022C8.2772 2.32058 8.2367 2.27812 8.18853 2.24583C8.10157 2.18365 7.99791 2.1491 7.89103 2.14667V2.14521ZM7.47395 2.86854C7.52645 2.85396 7.57603 2.91375 7.57895 2.96042C7.59296 3.08141 7.59881 3.20322 7.59645 3.325C7.59499 3.39062 7.5002 3.46646 7.43603 3.48542L5.70937 4.04833C5.69332 4.05417 5.66416 4.04833 5.66416 4.03083L5.66707 3.50875C5.66707 3.48396 5.69624 3.46354 5.71957 3.45625C6.29234 3.22613 6.87814 3.02988 7.47395 2.86854ZM17.6342 4.29917C18.5864 4.31375 19.4512 4.34292 20.405 4.4275C22.4119 4.59469 24.4027 4.91796 26.3594 5.39437C27.7791 5.75621 29.173 6.21272 30.5317 6.76083C30.5387 6.76373 30.5455 6.76715 30.5521 6.77104C30.5481 6.98881 30.5447 7.20659 30.5419 7.42438H17.6342V4.29917ZM17.1719 4.30208L17.1704 11.0367H12.8727C12.81 11.0308 12.8508 11.0031 12.8946 10.9608C13.2024 10.7309 13.5593 10.5751 13.9373 10.5058C13.9694 10.5029 13.9781 10.4854 13.9329 10.4271C13.7587 10.2534 13.5391 10.1322 13.2992 10.0775C13.0594 10.0229 12.8089 10.0369 12.5767 10.1179C12.3679 10.1853 12.1773 10.2996 12.0196 10.452C11.8619 10.6044 11.7411 10.791 11.6667 10.9973C11.6636 11.0104 11.6562 11.0221 11.6455 11.0303C11.6349 11.0385 11.6218 11.0428 11.6083 11.0425C11.3801 11.0568 11.1515 11.0631 10.9229 11.0615C10.8864 11.0615 10.8689 11.0148 10.8719 10.9798C10.9018 10.8339 10.9617 10.6958 11.0478 10.5743C11.1339 10.4528 11.2443 10.3505 11.3721 10.274C11.5984 10.1249 11.8588 10.0356 12.1289 10.0144C12.1381 10.0116 12.1463 10.0067 12.1531 10.0001C12.1599 9.99342 12.1649 9.9852 12.1678 9.97614C12.1707 9.96709 12.1713 9.95747 12.1696 9.94812C12.1679 9.93877 12.164 9.92998 12.1581 9.9225C12.1135 9.87052 12.062 9.82489 12.005 9.78687C11.7803 9.6657 11.5206 9.62602 11.27 9.67458C10.9112 9.70938 10.5761 9.86929 10.3233 10.1263C10.0706 10.3833 9.91628 10.7211 9.88749 11.0804C9.87291 11.1679 9.89624 11.1883 9.8102 11.2175C9.64687 11.2729 9.34062 11.3108 9.17728 11.3458C9.14812 11.3502 9.10437 11.2831 9.11166 11.254C9.17225 10.9769 9.29381 10.7169 9.46749 10.4927C9.59964 10.3155 9.77014 10.1704 9.96624 10.0683C10.0042 10.0494 10.0392 10.0042 10.0042 9.975C9.6352 9.65417 8.87978 9.9925 8.57499 10.3265C8.2872 10.7068 8.14495 11.1775 8.17395 11.6535C8.17395 11.6769 8.19437 11.7133 8.17395 11.7221C7.98275 11.8034 7.78812 11.8764 7.59062 11.9408C7.57312 11.9452 7.5702 11.9 7.56728 11.8825C7.50892 11.5381 7.58572 11.1844 7.78166 10.8952C7.86728 10.7488 7.99002 10.6276 8.13749 10.5438C8.15207 10.535 8.14916 10.5175 8.13749 10.5029C7.96978 10.2856 7.3077 10.4417 7.10499 10.64C6.63832 11.095 6.67187 11.5369 6.64999 12.2398C6.64853 12.2733 6.60624 12.4017 6.56832 12.4192C6.48548 12.4685 6.39468 12.503 6.29999 12.5213C6.26937 12.53 6.26645 12.5417 6.25916 12.511C6.23397 12.429 6.19054 12.3537 6.13213 12.2909C6.07372 12.228 6.00184 12.1792 5.92187 12.148C5.84191 12.1169 5.75593 12.1042 5.67039 12.111C5.58484 12.1178 5.50195 12.1439 5.42791 12.1873C5.3654 12.2275 5.31224 12.2806 5.27204 12.3431C5.23184 12.4056 5.20553 12.4761 5.19488 12.5496C5.18424 12.6232 5.18951 12.6981 5.21033 12.7695C5.23116 12.8408 5.26707 12.9069 5.31562 12.9631C5.33749 12.9879 5.34478 13.0127 5.31124 13.0229C5.23325 13.0469 5.16084 13.0863 5.09826 13.1386C5.03569 13.191 4.98421 13.2554 4.94685 13.3279C4.90949 13.4004 4.887 13.4797 4.88071 13.5611C4.87441 13.6424 4.88444 13.7242 4.9102 13.8017C4.94528 13.8887 5.00461 13.9638 5.08113 14.0181C5.15765 14.0724 5.24815 14.1036 5.34187 14.1079C5.53379 14.1133 5.72254 14.0582 5.88145 13.9504C5.88815 13.9456 5.89573 13.9422 5.90376 13.9403C5.91178 13.9385 5.92009 13.9382 5.92822 13.9396C5.93635 13.9409 5.94412 13.9439 5.95111 13.9482C5.9581 13.9526 5.96416 13.9583 5.96895 13.965C6.04777 14.0915 6.17357 14.1816 6.31874 14.2155C6.46392 14.2494 6.61661 14.2244 6.74332 14.1458C6.97957 13.9898 7.08457 13.7477 6.90957 13.3306C6.89937 13.3073 6.93874 13.2635 6.95916 13.2519C8.35626 12.4477 9.93261 12.0065 11.5442 11.9685C11.7713 11.9882 11.9949 12.0377 12.2092 12.1158C12.2208 12.1183 12.2321 12.1222 12.2427 12.1275L12.2456 13.4998C12.2305 13.5137 12.2139 13.526 12.196 13.5363C11.8968 13.7196 11.6732 14.0042 11.566 14.3383C11.5602 14.3631 11.5573 14.369 11.515 14.3733C11.2335 14.401 10.9331 14.4419 10.6531 14.4638C10.6371 14.4667 10.6064 14.436 10.6123 14.42C10.8152 13.8775 11.1855 13.4138 11.6696 13.0958C11.6821 13.0832 11.6903 13.067 11.693 13.0494C11.6956 13.0318 11.6925 13.0138 11.6842 12.9981C11.6156 12.9324 11.5312 12.8857 11.4392 12.8625C11.1956 12.844 10.9511 12.882 10.7247 12.9736C10.4983 13.0652 10.2961 13.2078 10.1339 13.3904C9.84331 13.7526 9.68303 14.2021 9.67895 14.6665C9.67749 14.6985 9.68332 14.751 9.65124 14.7613C9.47041 14.8181 9.27062 14.8692 9.08249 14.9217C9.06062 14.9275 9.03145 14.9056 9.02707 14.8823C8.97959 14.5896 9.0219 14.2894 9.14842 14.0213C9.27494 13.7532 9.47974 13.5296 9.73582 13.3802C9.8102 13.3219 9.68041 13.2315 9.58707 13.2315C9.31399 13.2167 9.04252 13.2819 8.806 13.4192C8.56947 13.5565 8.37818 13.7599 8.25561 14.0044C8.12095 14.3759 8.10566 14.7802 8.21187 15.1608C8.21624 15.1944 8.23957 15.2527 8.20312 15.2615C8.08791 15.2892 7.81666 15.3927 7.73207 15.419C7.70145 15.4292 7.68103 15.4146 7.66353 15.3752C7.59703 15.1438 7.58653 14.8998 7.63291 14.6635C7.69897 14.3942 7.83361 14.1465 8.02374 13.9446C8.03541 13.93 8.03978 13.8979 8.02374 13.8906C7.85042 13.8123 7.65461 13.7994 7.47249 13.8542C7.32382 13.8918 7.18488 13.9607 7.06494 14.0563C6.94499 14.1518 6.84678 14.2718 6.77687 14.4083C6.54499 14.8415 6.60478 15.2585 6.85124 15.874C6.86291 15.9031 6.87749 15.9585 6.85124 15.976L6.65145 16.0927C6.62666 16.1117 6.60478 16.0956 6.58728 16.0708C6.50707 15.9571 6.40645 15.7762 6.28103 15.7208C6.18223 15.6716 6.07185 15.6503 5.96183 15.6593C5.85182 15.6683 5.74636 15.7073 5.65687 15.7719C5.56934 15.848 5.50609 15.9481 5.47498 16.0599C5.44387 16.1716 5.44626 16.29 5.48187 16.4004C5.52264 16.4792 5.57152 16.5535 5.6277 16.6221C5.64228 16.6425 5.62624 16.6746 5.60874 16.6906C5.5227 16.7665 5.40457 16.8219 5.33457 16.8948C5.25869 16.9925 5.2163 17.1121 5.21367 17.2358C5.21105 17.3595 5.24833 17.4808 5.31999 17.5817C5.39124 17.6835 5.49586 17.7571 5.61572 17.7899C5.73558 17.8226 5.86312 17.8124 5.97624 17.761C6.09363 17.7109 6.20677 17.6515 6.31457 17.5831C6.35395 17.5569 6.3802 17.5087 6.41666 17.5467C6.50504 17.6473 6.6174 17.7241 6.74332 17.7698C6.83077 17.7931 6.92227 17.7972 7.01142 17.7815C7.10058 17.7659 7.18527 17.7311 7.25957 17.6794C7.34981 17.6366 7.42304 17.5648 7.46748 17.4754C7.51192 17.386 7.52499 17.2842 7.50457 17.1865C7.45869 17.044 7.3881 16.9107 7.29603 16.7927C7.24791 16.7417 7.24499 16.7446 7.29603 16.714C8.05694 16.2647 8.86991 15.9101 9.71687 15.6581C10.5152 15.418 11.3487 15.3159 12.1814 15.3562H12.2485L12.2529 18.1985H4.67541C4.59666 15.0879 4.50624 10.1631 4.44791 6.77104C4.45447 6.76717 4.46129 6.76376 4.46832 6.76083C5.82655 6.21277 7.21994 5.75626 8.63916 5.39437C10.5963 4.91788 12.5876 4.59461 14.595 4.4275C15.4525 4.35316 16.3126 4.31133 17.1733 4.30208H17.1719ZM12.6685 5.49208C12.3053 5.50051 11.953 5.61843 11.6579 5.83042C11.2408 6.10458 10.9929 6.95771 10.9433 7.2625C10.9408 7.27647 10.9337 7.28921 10.9231 7.29871C10.9126 7.30821 10.8992 7.31394 10.885 7.315C10.5532 7.35687 10.224 7.41773 9.89916 7.49729C9.88895 7.49875 9.88166 7.48271 9.88166 7.4725C9.90691 7.15159 10.0394 6.84851 10.2579 6.61208C10.4797 6.39832 10.7203 6.20503 10.9769 6.03458C10.9958 6.01854 10.9827 5.96896 10.9594 5.96021C10.7741 5.88616 10.576 5.84958 10.3765 5.85258C10.177 5.85559 9.98004 5.89811 9.79707 5.97771C9.5389 6.08719 9.31297 6.26079 9.14069 6.48206C8.96842 6.70334 8.85552 6.96495 8.8127 7.24208C8.77872 7.43948 8.76456 7.63978 8.77041 7.84C8.77332 7.86479 8.72666 7.86625 8.70478 7.87354C8.34603 7.98583 7.96978 8.11708 7.66937 8.21771C7.65478 8.22354 7.61249 8.22062 7.61249 8.20312C7.60125 7.86649 7.69006 7.53408 7.8677 7.24792C8.0427 6.96354 8.36791 6.80312 8.60416 6.56396C8.6202 6.54646 8.64499 6.49979 8.6202 6.48958C8.02228 6.24896 7.45791 6.49542 6.98103 7.03646C6.81957 7.27366 6.7101 7.54233 6.65984 7.82484C6.60957 8.10734 6.61963 8.39729 6.68937 8.67562C6.70249 8.72812 6.68937 8.785 6.66166 8.79667C6.55294 8.84753 6.44087 8.89089 6.32624 8.92646C6.32116 8.92824 6.31576 8.92887 6.31041 8.92831C6.30506 8.92775 6.2999 8.92601 6.2953 8.92323C6.2907 8.92044 6.28677 8.91667 6.2838 8.91218C6.28083 8.9077 6.27889 8.90261 6.27812 8.89729C6.14249 8.46562 5.63645 8.55021 5.40749 8.68146C5.28649 8.74957 5.19729 8.86272 5.15932 8.99629C5.12136 9.12985 5.1377 9.27301 5.20478 9.39458C5.20822 9.3997 5.21057 9.40546 5.2117 9.41152C5.21283 9.41758 5.21271 9.42381 5.21134 9.42981C5.20998 9.43582 5.2074 9.44149 5.20376 9.44647C5.20012 9.45144 5.19551 9.45562 5.1902 9.45875C5.11301 9.49564 5.04393 9.54752 4.987 9.61138C4.93006 9.67523 4.88641 9.74979 4.85858 9.83069C4.83076 9.91159 4.81931 9.99722 4.82492 10.0826C4.83053 10.168 4.85307 10.2514 4.89124 10.3279C4.95568 10.4287 5.05332 10.5039 5.16729 10.5404C5.28126 10.5769 5.40439 10.5724 5.51541 10.5277C5.64183 10.479 5.76221 10.4159 5.87416 10.3396C5.8812 10.3361 5.88913 10.3348 5.89693 10.3358C5.90472 10.3368 5.91203 10.3402 5.91791 10.3454C5.96301 10.4091 6.02065 10.4629 6.08729 10.5036C6.15393 10.5442 6.22817 10.5708 6.30546 10.5817C6.38274 10.5927 6.46145 10.5877 6.53674 10.5671C6.61204 10.5465 6.68233 10.5108 6.74332 10.4621C6.91103 10.3425 6.97666 10.3221 7.04082 10.1062C7.05037 10.0282 7.04364 9.94905 7.02105 9.87375C6.99846 9.79844 6.9605 9.72864 6.90957 9.66875C6.89207 9.65417 6.90812 9.61042 6.92853 9.60021C8.82411 8.62371 10.9161 8.08876 13.0477 8.03542C13.8215 8.05834 14.5648 8.34259 15.1564 8.84188C15.1665 8.85641 15.1801 8.86817 15.1959 8.87608C15.2117 8.88398 15.2292 8.88776 15.2469 8.88708C15.2649 8.87957 15.2811 8.86844 15.2947 8.8544C15.3082 8.84035 15.3188 8.82368 15.3256 8.80542C15.3751 8.62937 15.3734 8.44288 15.3207 8.26777C15.268 8.09267 15.1665 7.93619 15.0281 7.81667C14.7867 7.56492 14.4762 7.39034 14.1356 7.315C14.1181 7.31063 14.1064 7.27271 14.121 7.26104C14.2597 7.12119 14.4261 7.0119 14.6096 6.94021C14.9011 6.89102 15.1962 6.86662 15.4919 6.86729C15.5123 6.86583 15.5429 6.84542 15.5356 6.82646C15.4778 6.6652 15.3744 6.52422 15.238 6.42066C15.1015 6.31709 14.9379 6.25541 14.7671 6.24313C14.4232 6.20024 14.0742 6.25061 13.7564 6.38896C13.4283 6.56643 13.1709 6.85109 13.0273 7.19542C13.023 7.20412 13.0163 7.21146 13.0081 7.2166C12.9998 7.22175 12.9903 7.22452 12.9806 7.22458C12.692 7.21412 12.4032 7.21071 12.1144 7.21438C12.0939 7.21438 12.0633 7.21438 12.0633 7.19396C12.1055 6.90998 12.2356 6.64634 12.4352 6.44C12.7253 6.1886 13.0623 5.99726 13.4269 5.87708C13.4546 5.86833 13.4852 5.82458 13.4692 5.80271C13.393 5.69752 13.2924 5.61243 13.176 5.55479C13.011 5.51102 12.8406 5.49089 12.67 5.495L12.6685 5.49208ZM17.6342 7.83563H30.5331C30.5156 8.83604 30.4967 9.92542 30.4748 11.0367H17.6342V7.83563ZM12.6598 11.3765L22.381 11.3808C22.3868 11.3804 22.3925 11.3821 22.3971 11.3856C22.4016 11.3891 22.4048 11.3941 22.4058 11.3998L22.4029 18.8927C22.3956 19.2731 22.3251 19.6496 22.1944 20.0069C21.8073 21.0636 21.0649 21.9529 20.0944 22.5225C19.3267 22.9813 18.4511 23.2284 17.5569 23.2385C16.3444 23.2238 15.1765 22.7794 14.261 21.9844C13.7664 21.5714 13.3664 21.0568 13.0884 20.4755C12.8103 19.8942 12.6606 19.2599 12.6496 18.6156L12.6394 11.4042C12.6394 11.3852 12.6408 11.3765 12.6598 11.3765ZM22.8594 11.5019H30.4675C30.45 12.4425 30.431 13.3919 30.4179 14.3106H22.8594V12.1304V11.5019ZM12.8858 11.6054C12.8669 11.6054 12.8654 11.6127 12.8654 11.6317L12.8756 18.5631C12.8849 19.1824 13.0269 19.7925 13.2921 20.3523C13.5573 20.912 13.9394 21.4084 14.4127 21.8079C15.2824 22.5708 16.3957 22.9984 17.5525 23.014C18.4065 23.004 19.2423 22.7658 19.9733 22.3242C20.9016 21.7738 21.6099 20.9181 21.9771 19.9033C22.1015 19.5598 22.1686 19.1982 22.1754 18.8329L22.1783 11.6287C22.1781 11.6259 22.1774 11.6231 22.1761 11.6205C22.1748 11.6179 22.1731 11.6156 22.1709 11.6137C22.1687 11.6118 22.1662 11.6103 22.1635 11.6094C22.1607 11.6085 22.1579 11.6081 22.155 11.6083L12.8858 11.6054ZM19.355 12.0488C19.3545 12.0487 19.3555 12.0487 19.355 12.0488C19.3835 12.053 19.4118 12.0649 19.4341 12.0831C19.4564 12.1013 19.4734 12.1252 19.4833 12.1523L19.8362 13.195C19.8434 13.2112 19.8467 13.2288 19.846 13.2466C19.8452 13.2643 19.8404 13.2816 19.8319 13.2971C19.8224 13.3086 19.8103 13.3178 19.7966 13.3239C19.783 13.33 19.7681 13.3328 19.7531 13.3321C19.733 13.3325 19.7132 13.3266 19.6967 13.315C19.6802 13.3035 19.6677 13.287 19.6612 13.2679L19.6058 13.0856H19.1246L19.0721 13.2723C19.0575 13.3306 19.0137 13.3365 18.9685 13.3365C18.9555 13.3346 18.9431 13.33 18.932 13.323C18.921 13.316 18.9115 13.3066 18.9044 13.2956C18.896 13.2851 18.8903 13.2727 18.8877 13.2595C18.8852 13.2463 18.8859 13.2327 18.8898 13.2198L19.2281 12.1581C19.2356 12.1292 19.2518 12.1032 19.2745 12.0836C19.2972 12.0641 19.3252 12.0519 19.355 12.0488ZM18.2423 12.059C18.2535 12.0584 18.2646 12.0584 18.2758 12.059C18.3502 12.054 18.4241 12.0738 18.4861 12.1152C18.548 12.1566 18.5946 12.2173 18.6185 12.2879C18.6214 12.2965 18.6226 12.3056 18.6219 12.3147C18.6212 12.3238 18.6186 12.3326 18.6144 12.3406C18.6101 12.3487 18.6043 12.3558 18.5973 12.3615C18.5902 12.3672 18.5821 12.3715 18.5733 12.374C18.5558 12.3831 18.5355 12.3851 18.5165 12.3797C18.4975 12.3743 18.4813 12.3618 18.4712 12.3448C18.4528 12.3085 18.4255 12.2774 18.3918 12.2545C18.3582 12.2315 18.3193 12.2175 18.2787 12.2135C18.2357 12.2162 18.1943 12.2314 18.1599 12.2573C18.1254 12.2833 18.0993 12.3187 18.0848 12.3594C18.0333 12.4596 18.0058 12.5704 18.0046 12.6831C18.0017 12.7976 18.0247 12.9112 18.0717 13.0156C18.0889 13.0607 18.1199 13.0993 18.1601 13.126C18.2004 13.1526 18.248 13.1661 18.2962 13.1644C18.3712 13.1422 18.4362 13.0948 18.4803 13.0302C18.5244 12.9657 18.5449 12.8879 18.5383 12.81V12.7531H18.3414C18.3295 12.7536 18.3176 12.7515 18.3066 12.747C18.2955 12.7425 18.2856 12.7356 18.2774 12.7269C18.2692 12.7182 18.263 12.7078 18.2592 12.6965C18.2554 12.6851 18.2541 12.6731 18.2554 12.6613C18.2554 12.6277 18.2656 12.5883 18.3414 12.5883H18.6214C18.7148 12.5883 18.7279 12.6583 18.7279 12.7196C18.7297 12.7938 18.7243 12.868 18.7119 12.9412C18.6829 13.0786 18.6052 13.2008 18.4931 13.2854C18.427 13.3252 18.3515 13.3468 18.2744 13.3481C18.205 13.347 18.1374 13.3266 18.0789 13.2892C18.0205 13.2519 17.9735 13.1991 17.9433 13.1367C17.8689 12.9979 17.8322 12.842 17.8369 12.6846C17.834 12.5289 17.8744 12.3754 17.9535 12.2413C17.9804 12.1874 18.0216 12.1419 18.0725 12.1098C18.1234 12.0777 18.1821 12.0601 18.2423 12.059ZM13.8848 12.0619C13.8867 12.0619 13.8887 12.0619 13.8906 12.0619C14.1575 12.0648 14.245 12.2238 14.245 12.2806C14.245 12.3317 14.156 12.3973 14.1064 12.3375C14.078 12.3051 14.0427 12.2793 14.0031 12.2622C13.9635 12.2451 13.9206 12.2369 13.8775 12.2383C13.8306 12.2335 13.7834 12.2447 13.7437 12.2701C13.7039 12.2956 13.674 12.3337 13.6587 12.3783C13.6543 12.4003 13.6544 12.4229 13.659 12.4449C13.6636 12.4668 13.6725 12.4876 13.6853 12.506C13.6981 12.5244 13.7145 12.54 13.7335 12.5519C13.7525 12.5638 13.7737 12.5717 13.7958 12.5752C13.9329 12.5835 14.0661 12.6235 14.1852 12.6919H14.1837C14.2242 12.7219 14.2564 12.7618 14.277 12.8077C14.2977 12.8537 14.3063 12.9042 14.3019 12.9544C14.3041 13.049 14.269 13.1406 14.2042 13.2096C14.1562 13.2547 14.0995 13.2893 14.0375 13.3114C13.9755 13.3335 13.9096 13.3425 13.8439 13.3379C13.7677 13.3407 13.6921 13.3233 13.6247 13.2874C13.5574 13.2516 13.5007 13.1985 13.4604 13.1337C13.4546 13.1192 13.4458 13.0419 13.51 13.02C13.5315 13.015 13.554 13.0158 13.575 13.0225C13.5961 13.0292 13.6149 13.0414 13.6296 13.0579C13.6918 13.1151 13.7726 13.1478 13.8571 13.1498C13.9355 13.1523 14.0121 13.1264 14.0729 13.0769C14.0951 13.0555 14.1103 13.0279 14.1165 12.9977C14.1228 12.9675 14.1198 12.9362 14.1079 12.9077C14.0774 12.8615 14.0354 12.8241 13.9861 12.799C13.9367 12.774 13.8817 12.7622 13.8264 12.7648C13.7328 12.7642 13.643 12.7277 13.5756 12.6627C13.5393 12.6251 13.5116 12.5801 13.4942 12.5307C13.4768 12.4814 13.4703 12.4289 13.475 12.3769C13.4797 12.3288 13.4953 12.2824 13.5206 12.2413C13.5458 12.2001 13.5801 12.1652 13.6208 12.1392C13.699 12.0873 13.791 12.0604 13.8848 12.0619ZM16.2896 12.0619C16.2891 12.0619 16.2901 12.0619 16.2896 12.0619C16.2925 12.0617 16.2969 12.0617 16.2998 12.0619H16.8175C16.8407 12.0619 16.863 12.0711 16.8794 12.0875C16.8958 12.1039 16.905 12.1262 16.905 12.1494C16.905 12.1726 16.8958 12.1948 16.8794 12.2112C16.863 12.2277 16.8407 12.2369 16.8175 12.2369L16.6512 12.2398V13.2344C16.6484 13.2566 16.6376 13.277 16.6208 13.2918C16.6041 13.3065 16.5825 13.3147 16.5601 13.3147C16.5377 13.3147 16.5161 13.3065 16.4993 13.2918C16.4826 13.277 16.4718 13.2566 16.4689 13.2344V12.2383H16.2998C16.2766 12.2397 16.2538 12.2318 16.2364 12.2163C16.219 12.2009 16.2085 12.1791 16.2072 12.1559C16.2058 12.1327 16.2137 12.1099 16.2292 12.0926C16.2446 12.0752 16.2664 12.0647 16.2896 12.0633V12.0619ZM17.1062 12.0619C17.1067 12.0619 17.1072 12.0619 17.1077 12.0619C17.1106 12.0617 17.1135 12.0617 17.1164 12.0619H17.6327C17.6559 12.0619 17.6782 12.0711 17.6946 12.0875C17.711 12.1039 17.7202 12.1262 17.7202 12.1494C17.7202 12.1726 17.711 12.1948 17.6946 12.2112C17.6782 12.2277 17.6559 12.2369 17.6327 12.2369L17.4664 12.2398V13.2344C17.4636 13.2566 17.4528 13.277 17.436 13.2918C17.4193 13.3065 17.3977 13.3147 17.3753 13.3147C17.3529 13.3147 17.3313 13.3065 17.3146 13.2918C17.2978 13.277 17.287 13.2566 17.2842 13.2344V12.2383H17.1164C17.0932 12.2397 17.0704 12.2318 17.0531 12.2163C17.0357 12.2009 17.0252 12.1791 17.0238 12.1559C17.0225 12.1327 17.0304 12.1099 17.0459 12.0926C17.0613 12.0752 17.083 12.0647 17.1062 12.0633V12.0619ZM21.1021 12.0619C21.103 12.0619 21.104 12.0619 21.105 12.0619C21.1079 12.0617 21.1108 12.0617 21.1137 12.0619H21.6285C21.6517 12.0619 21.674 12.0711 21.6904 12.0875C21.7068 12.1039 21.716 12.1262 21.716 12.1494C21.716 12.1726 21.7068 12.1948 21.6904 12.2112C21.674 12.2277 21.6517 12.2369 21.6285 12.2369L21.4652 12.2398V13.2344C21.4624 13.2566 21.4516 13.277 21.4348 13.2918C21.418 13.3065 21.3964 13.3147 21.3741 13.3147C21.3517 13.3147 21.3301 13.3065 21.3133 13.2918C21.2965 13.277 21.2857 13.2566 21.2829 13.2344V12.2383H21.1137C21.0905 12.2397 21.0677 12.2318 21.0504 12.2163C21.033 12.2009 21.0225 12.1791 21.0211 12.1559C21.0198 12.1327 21.0277 12.1099 21.0432 12.0926C21.0586 12.0752 21.0803 12.0647 21.1035 12.0633L21.1021 12.0619ZM20.1148 12.0677C20.1206 12.0672 20.1265 12.0672 20.1323 12.0677H20.4094C20.5167 12.0646 20.6225 12.0941 20.7127 12.1523C20.7591 12.188 20.7972 12.2334 20.8244 12.2852C20.8516 12.3371 20.8672 12.3942 20.8702 12.4527C20.8766 12.5056 20.8705 12.5592 20.8525 12.6093C20.8346 12.6594 20.8052 12.7047 20.7667 12.7415C20.719 12.7906 20.6606 12.828 20.596 12.8508L20.5669 12.861L20.7973 13.1527C20.818 13.175 20.8299 13.204 20.8308 13.2344C20.8279 13.281 20.7973 13.3073 20.7433 13.3073C20.7275 13.3079 20.7118 13.3047 20.6976 13.2978C20.6833 13.291 20.671 13.2807 20.6617 13.2679L20.3889 12.8917H20.2183V13.2271C20.2201 13.2398 20.219 13.2528 20.2151 13.2651C20.2112 13.2773 20.2046 13.2886 20.1958 13.2979C20.187 13.3073 20.1762 13.3146 20.1642 13.3192C20.1522 13.3239 20.1393 13.3258 20.1264 13.3248C20.1138 13.3253 20.1012 13.3231 20.0895 13.3182C20.0778 13.3134 20.0673 13.3061 20.0587 13.2968C20.0501 13.2875 20.0436 13.2765 20.0397 13.2644C20.0358 13.2524 20.0345 13.2397 20.036 13.2271V12.1683C20.0345 12.142 20.0428 12.116 20.0594 12.0954C20.0741 12.08 20.0937 12.0702 20.1148 12.0677ZM14.471 12.0706C14.4725 12.0706 14.4739 12.0706 14.4754 12.0706H14.996C15.0194 12.0706 15.0419 12.0799 15.0584 12.0965C15.075 12.113 15.0843 12.1355 15.0843 12.1589C15.0843 12.1823 15.075 12.2047 15.0584 12.2212C15.0419 12.2378 15.0194 12.2471 14.996 12.2471H14.8269V13.2446C14.8241 13.2668 14.8132 13.2872 14.7965 13.302C14.7797 13.3167 14.7581 13.3249 14.7357 13.3249C14.7134 13.3249 14.6918 13.3167 14.675 13.302C14.6582 13.2872 14.6474 13.2668 14.6446 13.2446V12.2471H14.4754C14.4522 12.2477 14.4297 12.239 14.4129 12.223C14.3961 12.207 14.3863 12.185 14.3857 12.1618C14.3851 12.1386 14.3938 12.1161 14.4098 12.0993C14.4258 12.0824 14.4478 12.0712 14.471 12.0706ZM15.3212 12.0706C15.3222 12.0706 15.3232 12.0706 15.3242 12.0706C15.3366 12.0702 15.349 12.0724 15.3606 12.0769C15.3721 12.0814 15.3827 12.0883 15.3915 12.097C15.4004 12.1057 15.4074 12.1161 15.4121 12.1277C15.4168 12.1392 15.4192 12.1515 15.4189 12.164V12.8508C15.4139 12.928 15.4327 13.0049 15.4729 13.071C15.4946 13.099 15.5229 13.121 15.5552 13.1353C15.5875 13.1495 15.6229 13.1555 15.6581 13.1527C15.693 13.1561 15.7281 13.1504 15.7601 13.1361C15.7921 13.1218 15.8198 13.0993 15.8404 13.071C15.8787 13.0048 15.8965 12.9287 15.8914 12.8523V12.1625C15.8943 12.1403 15.9065 12.1199 15.9233 12.1051C15.9401 12.0903 15.9617 12.0822 15.9841 12.0822C16.0064 12.0822 16.028 12.0903 16.0448 12.1051C16.0616 12.1199 16.0724 12.1403 16.0752 12.1625V12.7925C16.0853 12.9251 16.0569 13.0577 15.9935 13.1746C15.9564 13.2269 15.906 13.2685 15.8477 13.2951C15.7893 13.3217 15.7249 13.3325 15.661 13.3263C15.5968 13.3315 15.5324 13.3204 15.4737 13.2939C15.415 13.2673 15.364 13.2263 15.3256 13.1746C15.2582 13.0591 15.2272 12.9259 15.2367 12.7925V12.1625C15.2366 12.1393 15.2453 12.117 15.2609 12.1C15.2766 12.0829 15.2982 12.0725 15.3212 12.0706ZM20.2125 12.2383V12.7167H20.4021C20.4382 12.7207 20.4748 12.7172 20.5094 12.7064C20.5441 12.6956 20.5762 12.6777 20.6036 12.6538C20.6311 12.63 20.6532 12.6007 20.6687 12.5678C20.6842 12.535 20.6928 12.4992 20.6937 12.4629C20.693 12.4327 20.686 12.403 20.6732 12.3757C20.6604 12.3483 20.6421 12.3239 20.6194 12.304C20.5937 12.281 20.5637 12.2634 20.5312 12.2521C20.4986 12.2408 20.4642 12.2361 20.4298 12.2383H20.2125ZM19.3608 12.2602L19.1625 12.9442H19.5679L19.3608 12.2602ZM17.6983 13.7258C17.7144 13.7258 17.7289 13.7288 17.7304 13.7419C17.7333 13.7681 17.7071 13.7842 17.6692 13.8031C17.6126 13.8271 17.5648 13.8678 17.5321 13.9198C17.4916 13.9923 17.472 14.0745 17.4752 14.1575C17.4807 14.1824 17.4919 14.2058 17.5078 14.2257C17.5237 14.2457 17.544 14.2618 17.5671 14.2727C17.6317 14.3031 17.7028 14.3172 17.7742 14.3135C17.8843 14.3069 17.9914 14.2755 18.0877 14.2217C18.2176 14.1797 18.3556 14.1697 18.4902 14.1925C18.5917 14.1935 18.6904 14.2256 18.7731 14.2844C18.8081 14.3092 18.8023 14.3398 18.7892 14.3427C18.7687 14.35 18.7469 14.3252 18.725 14.3281C18.6546 14.3352 18.5852 14.3499 18.5179 14.3719C18.4304 14.4113 18.391 14.4258 18.3487 14.5031C18.3318 14.536 18.3282 14.5741 18.3385 14.6096C18.3531 14.6446 18.3896 14.6679 18.3969 14.6927C18.4182 14.758 18.4497 14.8195 18.4902 14.875C18.5037 14.8875 18.5184 14.8987 18.5339 14.9085C18.6791 15.0169 18.8165 15.1354 18.9452 15.2629C18.9733 15.3039 18.9932 15.3499 19.0035 15.3985C19.0079 15.416 18.9933 15.4423 18.9773 15.435C18.9585 15.4225 18.941 15.4084 18.9248 15.3927C18.9028 15.3691 18.8766 15.3498 18.8475 15.3358C18.7662 15.3029 18.6781 15.2904 18.5908 15.2994C18.5514 15.2994 18.4727 15.3344 18.5179 15.3519C18.5952 15.3913 18.6613 15.4495 18.7104 15.521C18.8201 15.6452 18.8762 15.8077 18.8664 15.9731C18.8664 15.9819 18.8489 15.9877 18.8446 15.9819C18.8067 15.9191 18.756 15.8649 18.6958 15.8229C18.6073 15.7582 18.4991 15.7262 18.3896 15.7325C18.3677 15.734 18.3021 15.7325 18.3094 15.7529C18.3779 15.8398 18.438 15.9331 18.4887 16.0315C18.5412 16.1587 18.5608 16.2971 18.5456 16.434C18.5442 16.4412 18.5164 16.4485 18.5121 16.4412C18.478 16.4011 18.4404 16.364 18.3998 16.3304C18.3591 16.2941 18.3128 16.2645 18.2627 16.2429C18.1619 16.2197 18.056 16.2342 17.9652 16.2838C17.8847 16.3282 17.8188 16.3951 17.7756 16.4763C17.7239 16.5681 17.693 16.6701 17.6852 16.7752C17.6691 16.9034 17.6904 17.0336 17.7464 17.15C17.8079 17.2597 17.906 17.3444 18.0235 17.3892C18.1808 17.4393 18.3457 17.461 18.5106 17.4533C18.7133 17.4606 18.916 17.43 19.1187 17.4242C19.3109 17.406 19.5044 17.4074 19.6962 17.4285C19.8516 17.4594 20 17.5187 20.1337 17.6035C20.2429 17.6868 20.3476 17.7759 20.4473 17.8704C20.4589 17.8792 20.4852 17.866 20.4983 17.8573C20.5941 17.7653 20.6606 17.6471 20.6894 17.5175C20.7083 17.3919 20.6791 17.2638 20.6077 17.1588C20.5392 17.0348 20.4385 16.8963 20.3598 16.765C20.253 16.6272 20.1546 16.483 20.0652 16.3333C20.0168 16.2328 20.008 16.1178 20.0404 16.011C20.0682 15.932 20.1236 15.8657 20.1964 15.8244C20.2125 15.8142 20.2285 15.8331 20.2212 15.855C20.2004 15.9069 20.1963 15.964 20.2096 16.0183C20.2341 16.0966 20.2789 16.167 20.3394 16.2225C20.3583 16.2371 20.4079 16.2152 20.4196 16.1919C20.4458 16.1292 20.4298 16.0315 20.4531 15.9673C20.4826 15.8478 20.5362 15.7357 20.6106 15.6377C20.7714 15.5184 20.9481 15.4222 21.1356 15.3519C21.1837 15.3242 21.2144 15.1988 21.2683 15.2192C21.3223 15.2381 21.2931 15.365 21.2523 15.4263C21.1939 15.5167 21.1254 15.5721 21.0612 15.6538C20.9736 15.7663 20.897 15.8869 20.8323 16.014C20.797 16.0742 20.7822 16.1443 20.79 16.2138C20.7966 16.243 20.8095 16.2705 20.8279 16.2942C20.8463 16.3179 20.8697 16.3372 20.8964 16.3508C20.9285 16.3654 20.9694 16.3363 20.9985 16.3144C21.0546 16.2735 21.1025 16.2225 21.14 16.1642C21.1735 16.1087 21.1546 16.0344 21.1867 15.9775C21.1954 15.9644 21.2304 15.9673 21.2406 15.9775C21.2757 16.0096 21.2984 16.0529 21.3048 16.1C21.3079 16.1553 21.303 16.2109 21.2902 16.2648C21.2858 16.2765 21.2552 16.3042 21.245 16.3304C21.2371 16.3507 21.2273 16.3702 21.2158 16.3888C21.1633 16.4806 21.1021 16.5579 21.0335 16.5725C21.0189 16.574 21.0087 16.6031 21.0189 16.6163C21.0587 16.692 21.1151 16.7578 21.1837 16.8088C21.2179 16.8257 21.2551 16.8357 21.2931 16.8382C21.3312 16.8407 21.3693 16.8357 21.4054 16.8233C21.4448 16.8117 21.4754 16.784 21.5206 16.7694C21.5396 16.7635 21.5279 16.7752 21.5279 16.7942C21.5275 16.8369 21.5201 16.8792 21.506 16.9196C21.4825 16.97 21.4444 17.0122 21.3967 17.0406C21.3224 17.0826 21.2397 17.1075 21.1546 17.1135C21.1152 17.1208 21.0554 17.15 21.07 17.1879C21.0825 17.2327 21.1033 17.2747 21.1312 17.3119C21.1616 17.3448 21.2032 17.3652 21.2479 17.3687C21.3128 17.3715 21.3767 17.3531 21.4302 17.3162C21.4885 17.2783 21.5192 17.2083 21.5702 17.1588C21.5804 17.15 21.6081 17.1588 21.6081 17.1733C21.6061 17.2537 21.5856 17.3325 21.5483 17.4038C21.4995 17.4821 21.4361 17.5504 21.3617 17.605C21.3398 17.624 21.3135 17.6473 21.3135 17.6765C21.3248 17.7218 21.3468 17.7639 21.3777 17.799C21.4065 17.8397 21.4498 17.8679 21.4987 17.8777C21.5469 17.8868 21.5964 17.8868 21.6446 17.8777C21.6635 17.8777 21.6592 17.9113 21.6431 17.9229C21.5963 17.9709 21.5373 18.0051 21.4725 18.0221C21.4123 18.0421 21.348 18.0462 21.2858 18.0338C21.1677 18.0046 21.0904 17.9608 20.9737 17.9273C20.9109 17.9033 20.8423 17.8987 20.7769 17.9142C20.7143 17.938 20.6604 17.9802 20.6223 18.0352C20.5995 18.0618 20.5844 18.0941 20.5785 18.1285C20.5698 18.2204 20.615 18.3181 20.5858 18.4085C20.5565 18.5255 20.517 18.6397 20.4677 18.7498C20.418 18.8342 20.362 18.9146 20.3 18.9904C20.2417 19.0692 20.1644 19.0983 20.125 19.1844C20.1083 19.216 20.0898 19.2467 20.0696 19.2763C20.0159 19.3795 19.9869 19.4938 19.985 19.6102C19.9999 19.7206 20.0425 19.8255 20.1089 19.915L20.3321 20.2606C20.3479 20.2989 20.3524 20.3409 20.3452 20.3817C20.3437 20.4026 20.337 20.4229 20.3258 20.4407C20.3147 20.4585 20.2993 20.4733 20.281 20.4837C19.9849 20.6504 19.7656 20.9262 19.67 21.2523L19.6671 21.2713V21.2771C19.6616 21.2995 19.6511 21.3205 19.6364 21.3383C19.5618 21.414 19.4645 21.4631 19.3594 21.4783C19.2792 21.5002 19.1989 21.5206 19.1187 21.5454C19.0926 21.5523 19.0698 21.5683 19.0546 21.5906C19.0409 21.6124 19.0347 21.638 19.0371 21.6636C19.0395 21.6892 19.0502 21.7132 19.0677 21.7321C19.0919 21.7617 19.1071 21.7976 19.1114 21.8356C19.1127 21.8577 19.106 21.8794 19.0925 21.8969C19.0807 21.9098 19.0669 21.9206 19.0517 21.929C18.9529 21.9853 18.8469 22.0279 18.7367 22.0558C18.6637 22.0719 18.6112 22.0529 18.6346 21.9698C18.675 21.8251 18.7227 21.6824 18.7775 21.5425C18.8254 21.4603 18.8918 21.3904 18.9714 21.3383C19.0698 21.2536 19.1731 21.1748 19.2806 21.1021C19.3509 21.0539 19.41 20.9912 19.4542 20.9183C19.5397 20.7801 19.6322 20.6462 19.7312 20.5173C19.751 20.4906 19.765 20.4601 19.7723 20.4277C19.7796 20.3953 19.78 20.3617 19.7735 20.3292C19.764 20.2706 19.7401 20.2153 19.704 20.1682C19.6679 20.1211 19.6206 20.0837 19.5664 20.0594C19.5259 20.0411 19.4845 20.0245 19.4425 20.0098C19.3008 19.961 19.1763 19.8724 19.0837 19.7546C19.0736 19.739 19.0604 19.7258 19.0448 19.7157C19.0292 19.7057 19.0117 19.699 18.9933 19.6962C18.9014 19.6992 18.8752 19.8275 18.8723 19.8975C18.8649 20.0005 18.8668 20.104 18.8781 20.2067C18.8871 20.2409 18.8891 20.2766 18.8839 20.3117C18.8793 20.324 18.8716 20.3349 18.8617 20.3436C18.8518 20.3522 18.8399 20.3583 18.8271 20.3612C18.5377 20.4647 18.2612 20.6013 18.0031 20.7681C17.966 20.7958 17.9348 20.8304 17.9112 20.8702L17.8864 20.9125C17.854 20.9665 17.804 21.0076 17.7447 21.0289C17.6854 21.0502 17.6206 21.0503 17.5612 21.0292C17.5401 21.0229 17.5187 21.0175 17.4971 21.0131C17.464 21.0098 17.4308 21.0186 17.4037 21.0379C17.381 21.0519 17.3608 21.0697 17.3439 21.0904C17.3375 21.0987 17.3325 21.1081 17.3294 21.1181V21.1269C17.3291 21.1308 17.3291 21.1347 17.3294 21.1385C17.3303 21.147 17.3322 21.1553 17.3352 21.1633L17.3673 21.2508C17.3745 21.2634 17.3788 21.2774 17.3798 21.2918C17.3809 21.3063 17.3786 21.3207 17.3733 21.3342C17.368 21.3476 17.3597 21.3597 17.3491 21.3695C17.3384 21.3793 17.3257 21.3866 17.3119 21.3908C17.2167 21.4293 17.1174 21.4562 17.0158 21.471C16.9575 21.4783 16.9064 21.4565 16.921 21.3879C16.942 21.2692 16.9762 21.1533 17.0231 21.0423C17.0294 21.0223 17.0401 21.0041 17.0545 20.9889C17.0689 20.9737 17.0866 20.9621 17.1062 20.9548C17.2026 20.8997 17.2906 20.8309 17.3673 20.7506C17.4341 20.6869 17.5215 20.6492 17.6137 20.6442C17.7522 20.6321 17.8845 20.5816 17.9958 20.4983C18.1126 20.4173 18.2224 20.3266 18.3239 20.2271C18.3984 20.1307 18.4381 20.0119 18.4365 19.8901C18.4349 19.7683 18.3922 19.6507 18.3152 19.5562L18.286 19.5052C18.2583 19.4615 18.2423 19.3988 18.2189 19.3535C18.1884 19.3081 18.1689 19.2562 18.1621 19.2019C18.1621 19.1027 18.2014 19.0079 18.2073 18.9088C18.208 18.9009 18.2062 18.8931 18.2019 18.8865C18.1977 18.8799 18.1914 18.8749 18.1839 18.8723C18.1198 18.8482 18.0525 18.8334 17.9842 18.8285C17.713 18.86 17.4393 18.8629 17.1675 18.8373C16.9657 18.7791 16.7739 18.6906 16.5987 18.5748C16.5214 18.5267 16.4748 18.4727 16.396 18.4275C16.3756 18.4158 16.3742 18.4202 16.3552 18.4363C16.1618 18.5766 15.9237 18.6414 15.6858 18.6185H15.6829C15.537 18.5935 15.3936 18.5559 15.2542 18.5063C15.1477 18.4669 14.9771 18.3983 14.875 18.4844C14.8327 18.5208 14.8429 18.5719 14.8429 18.62C14.8563 18.7683 14.8514 18.9177 14.8283 19.0648C14.8256 19.0724 14.8246 19.0805 14.8253 19.0886C14.8261 19.0967 14.8286 19.1045 14.8327 19.1115C14.8353 19.1147 14.8383 19.1176 14.8414 19.1202C14.8574 19.1325 14.8751 19.1424 14.8939 19.1494L14.9085 19.1552C14.9494 19.1698 14.9567 19.1888 14.9814 19.2398C14.9941 19.2684 15.002 19.299 15.0048 19.3302C15.0093 19.3603 15.0078 19.3911 15.0004 19.4206C14.9967 19.4397 14.9924 19.4587 14.9873 19.4775C14.969 19.5426 14.9731 19.6119 14.9989 19.6744C15.0112 19.7057 15.0325 19.7326 15.0602 19.7517C15.0649 19.754 15.0698 19.7559 15.0748 19.7575C15.0795 19.7594 15.0844 19.7608 15.0894 19.7619C15.0942 19.7622 15.0991 19.7622 15.1039 19.7619H15.1185C15.1288 19.7594 15.1386 19.7555 15.1477 19.7502L15.1535 19.7473C15.1677 19.7351 15.1859 19.7289 15.2046 19.7298C15.2096 19.7307 15.2145 19.7322 15.2192 19.7342C15.2442 19.7396 15.2668 19.7531 15.2834 19.7726C15.3 19.7921 15.3097 19.8165 15.311 19.8421C15.3144 19.9533 15.2914 20.0637 15.2439 20.1644C15.2395 20.1747 15.2331 20.184 15.225 20.1918C15.2169 20.1996 15.2074 20.2057 15.197 20.2098C15.1865 20.2138 15.1754 20.2158 15.1641 20.2155C15.1529 20.2152 15.1419 20.2127 15.1317 20.2081L15.1054 20.1979C15.0263 20.1558 14.9568 20.0977 14.9012 20.0273C14.8601 19.9822 14.835 19.9248 14.8298 19.864C14.8315 19.8204 14.817 19.7778 14.7889 19.7444C14.7751 19.7336 14.7592 19.7256 14.7423 19.721C14.7024 19.7093 14.6668 19.6859 14.6402 19.654C14.6052 19.6094 14.5802 19.5578 14.5671 19.5026C14.554 19.4475 14.5531 19.3901 14.5644 19.3346C14.6096 19.0223 14.5867 18.7039 14.4973 18.4013C14.4785 18.3502 14.4796 18.294 14.5002 18.2438L14.5235 18.181C14.5265 18.1731 14.5299 18.1653 14.5337 18.1577C14.5397 18.1458 14.5483 18.1354 14.559 18.1273C14.5696 18.1192 14.5819 18.1136 14.595 18.111C14.6089 18.1084 14.6231 18.1069 14.6373 18.1067C14.8599 18.1059 15.0812 18.0715 15.2935 18.0046C15.3223 17.9935 15.3531 17.9885 15.3839 17.99C15.4194 17.9924 15.4549 17.9934 15.4904 17.9929C15.5342 17.9929 15.5779 17.9535 15.5254 17.92C15.4816 17.8807 15.4407 17.8383 15.4029 17.7931C15.3956 17.7801 15.3842 17.7699 15.3705 17.7641C15.3568 17.7583 15.3415 17.7572 15.3271 17.761C15.322 17.7631 15.3172 17.7655 15.3125 17.7683L15.2994 17.7756C15.283 17.79 15.2636 17.8005 15.2426 17.8062C15.2216 17.8119 15.1996 17.8128 15.1782 17.8087C15.1568 17.8046 15.1366 17.7957 15.1192 17.7826C15.1018 17.7696 15.0876 17.7527 15.0777 17.7333C15.0224 17.6413 14.9798 17.5422 14.9508 17.4388C14.9263 17.312 14.8718 17.193 14.7919 17.0917C14.7553 17.0569 14.7115 17.0306 14.6636 17.0148C14.6157 16.9989 14.5649 16.9938 14.5148 16.9998C14.4354 17.0209 14.3673 17.0722 14.3252 17.1427L14.2333 17.271C14.21 17.2991 14.1944 17.3328 14.1881 17.3687C14.1875 17.3765 14.1875 17.3843 14.1881 17.3921C14.1902 17.408 14.1941 17.4237 14.1998 17.4388C14.2157 17.4773 14.2188 17.52 14.2086 17.5605C14.1983 17.6009 14.1753 17.637 14.1429 17.6633L14.0058 17.7727C13.9931 17.7837 13.9827 17.7971 13.9752 17.8121C13.9677 17.8271 13.9632 17.8435 13.9621 17.8602C13.9579 17.8897 13.9521 17.9189 13.9446 17.9477C13.9393 17.9692 13.9378 17.9914 13.9402 18.0133C13.9408 18.0192 13.9417 18.0251 13.9431 18.0308C13.9516 18.0546 13.9674 18.0751 13.9883 18.0892C13.995 18.0946 14.0013 18.1005 14.0073 18.1067C14.0143 18.1141 14.0201 18.1224 14.0248 18.1315C14.0331 18.1481 14.0359 18.167 14.0328 18.1854C14.0296 18.2037 14.0207 18.2206 14.0073 18.2335C13.9964 18.2446 13.9847 18.2548 13.9723 18.2642C13.8881 18.3299 13.7947 18.3829 13.6952 18.4217C13.683 18.4263 13.6703 18.4292 13.6573 18.4304C13.6019 18.4348 13.5844 18.3925 13.5814 18.3429C13.5771 18.2788 13.5771 18.2131 13.5771 18.1475C13.5791 18.0729 13.6088 18.0017 13.6602 17.9477C13.7311 17.8533 13.7681 17.7377 13.7652 17.6196C13.7615 17.5515 13.7822 17.4843 13.8235 17.43C13.8587 17.3915 13.8869 17.347 13.9067 17.2988C13.9207 17.264 13.9399 17.2316 13.9635 17.2025C14.1115 17.0244 14.2484 16.8374 14.3733 16.6425C14.4521 16.5171 14.5994 16.3625 14.7189 16.536C14.75 16.5827 14.7884 16.6241 14.8327 16.6585C14.9534 16.7462 15.0795 16.8261 15.2104 16.8977C15.3475 16.975 15.3694 16.8365 15.3927 16.7213V16.7169C15.4043 16.6696 15.423 16.6244 15.4481 16.5827C15.5306 16.4506 15.6296 16.3296 15.7427 16.2225C15.8054 16.1671 15.8958 16.1117 15.9614 16.0577C15.9877 16.0344 15.995 16.0315 16.0052 15.9994C16.0183 15.9673 16.0402 15.9265 16.0548 15.8856C16.0694 15.8462 16.0767 15.8054 16.0898 15.7748C16.1185 15.7308 16.1402 15.6826 16.1539 15.6319V15.6275C16.1542 15.6251 16.1542 15.6226 16.1539 15.6202V15.61L16.1496 15.5998C16.1435 15.5851 16.1327 15.5728 16.1189 15.5648C16.0743 15.5376 16.0225 15.5244 15.9702 15.5269H15.9658C15.8916 15.5275 15.8182 15.5429 15.75 15.5721C15.7149 15.5876 15.6868 15.6157 15.6712 15.6508C15.6561 15.6847 15.6354 15.7157 15.61 15.7427C15.5849 15.7671 15.5518 15.7815 15.5169 15.7831C15.4819 15.7847 15.4476 15.7735 15.4204 15.7515C15.3854 15.7281 15.4 15.6888 15.4204 15.6596C15.4392 15.6366 15.4563 15.6122 15.4714 15.5867C15.4776 15.5756 15.4801 15.5628 15.4787 15.5502V15.5444L15.4758 15.5371C15.4738 15.5339 15.4713 15.5309 15.4685 15.5283C15.4594 15.5211 15.4486 15.5163 15.4371 15.5145C15.4256 15.5127 15.4138 15.514 15.4029 15.5181C15.362 15.5294 15.3216 15.5426 15.2819 15.5575C15.2686 15.5647 15.2539 15.5686 15.2388 15.5689C15.2238 15.5692 15.2089 15.5658 15.1954 15.5591C15.1819 15.5523 15.1703 15.5424 15.1615 15.5302C15.1527 15.518 15.1469 15.5039 15.1448 15.489C15.1391 15.4626 15.1376 15.4355 15.1404 15.4088C15.1413 15.392 15.1474 15.376 15.1579 15.3629C15.1683 15.3499 15.1826 15.3404 15.1987 15.3358C15.2279 15.3271 15.2717 15.311 15.2658 15.2746C15.2642 15.2635 15.2642 15.2522 15.2658 15.241C15.2685 15.228 15.2745 15.216 15.2833 15.206C15.2961 15.1919 15.3109 15.1796 15.3271 15.1696C15.4884 15.0639 15.6441 14.95 15.7937 14.8283C15.805 14.8152 15.8206 14.8066 15.8377 14.8039C15.8548 14.8012 15.8723 14.8047 15.8871 14.8138L15.9017 14.8225C15.9694 14.8578 16.0473 14.8681 16.1219 14.8517C16.135 14.8511 16.1477 14.8466 16.1583 14.8388C16.169 14.831 16.1771 14.8203 16.1817 14.8079C16.1819 14.8055 16.1819 14.8031 16.1817 14.8006V14.7933L16.1787 14.7846L16.1744 14.7788C16.1607 14.7638 16.143 14.7531 16.1233 14.7481L16.0387 14.7175C16.0122 14.7081 15.9868 14.6959 15.9629 14.681C15.9483 14.6726 15.9368 14.6597 15.9302 14.6442C15.9236 14.6286 15.9223 14.6114 15.9264 14.595C15.96 14.4302 16.1408 14.4288 16.2779 14.4419H16.2837C16.353 14.4408 16.4217 14.43 16.4879 14.4098C16.5754 14.3792 16.6425 14.3121 16.7256 14.2727C16.8087 14.2333 16.8962 14.1896 16.9823 14.156C17.0085 14.1473 17.0304 14.1531 17.0537 14.1429C17.0734 14.135 17.0909 14.1225 17.1048 14.1065C17.1647 14.0197 17.2342 13.94 17.3119 13.8688C17.419 13.8065 17.5351 13.7613 17.656 13.7346C17.6701 13.7296 17.6849 13.7266 17.6998 13.7258H17.6983ZM17.0785 14.5381C17.0251 14.5378 16.9725 14.5508 16.9254 14.576C16.9123 14.5833 16.9035 14.5994 16.9137 14.611C16.94 14.6417 16.9852 14.6548 17.0158 14.684C17.0368 14.703 17.0541 14.7258 17.0669 14.751C17.08 14.7788 17.1019 14.8094 17.115 14.8385C17.1399 14.8972 17.1618 14.9571 17.1806 15.0179C17.2138 15.1172 17.2382 15.2192 17.2535 15.3227C17.2681 15.4058 17.2637 15.4933 17.2681 15.5779V15.696C17.2667 15.7296 17.2667 15.7646 17.2637 15.7981C17.2598 15.8457 17.2578 15.8933 17.2579 15.941V16.0577C17.2608 16.1598 17.2769 16.2327 17.3221 16.2327C17.3645 16.2335 17.4066 16.224 17.4446 16.205C17.4819 16.1826 17.5129 16.151 17.5346 16.1132C17.5563 16.0754 17.568 16.0327 17.5685 15.9892C17.6071 15.7104 17.6056 15.4275 17.5642 15.1492C17.5572 15.047 17.5293 14.9474 17.4822 14.8566C17.435 14.7658 17.3696 14.6856 17.29 14.6213C17.2325 14.5689 17.1563 14.5393 17.0785 14.5381ZM22.8535 14.7729H30.4033C30.3785 15.976 30.3537 17.1063 30.3304 18.0731H22.8492L22.855 15.3577L22.8535 14.7729ZM22.8448 18.4829H30.3158C30.2698 19.9303 30.0018 21.3621 29.521 22.7281C28.9484 24.3298 28.1846 25.8566 27.246 27.2752C26.2668 28.7364 25.0805 30.0475 23.7242 31.1675C23.1944 31.6161 22.6356 32.0292 22.0514 32.4042C21.1367 32.961 20.1812 33.448 19.1931 33.861C18.8664 34.001 18.5835 34.1323 18.3239 34.2212C18.0425 34.316 17.8019 34.4035 17.6327 34.4487V34.281L17.6371 23.6425C17.7911 23.6382 17.9449 23.627 18.0979 23.609C18.1052 23.6308 18.1212 23.6921 18.1431 23.7548C18.1761 23.8155 18.2216 23.8686 18.2767 23.9103C18.3317 23.9521 18.3951 23.9816 18.4625 23.9969C18.544 24.0134 18.6285 24.0077 18.7071 23.9802C18.7856 23.9527 18.8553 23.9046 18.9087 23.8408C18.9846 23.9083 19.0777 23.9532 19.1777 23.9704C19.2777 23.9877 19.3805 23.9767 19.4746 23.9385C19.5477 23.9192 19.6123 23.8763 19.6585 23.8164C19.7046 23.7566 19.7297 23.6831 19.7298 23.6075C19.7391 23.504 19.7226 23.3997 19.6817 23.3042L19.6292 23.2079C20.0114 23.0485 20.3752 22.848 20.7142 22.61L20.7433 22.6013C21.2873 22.4642 23.4733 21.681 24.8135 21.6635C25.6403 21.6448 26.4578 21.8408 27.1862 22.2323C27.559 22.4501 27.8947 22.7257 28.1808 23.049C28.1896 23.0621 28.1998 23.0898 28.2348 23.0956C28.2453 23.0959 28.2557 23.0929 28.2645 23.0872C28.2734 23.0815 28.2803 23.0732 28.2844 23.0635C28.3805 22.825 28.4199 22.5674 28.3996 22.311C28.3704 21.8998 27.9621 21.6023 27.841 21.4798C27.8367 21.4754 27.8264 21.4492 27.8702 21.42C27.917 21.3737 27.9683 21.3321 28.0233 21.296C28.2576 21.11 28.5441 21.0019 28.8429 20.9869C28.8867 20.9913 28.8721 20.9285 28.8604 20.876C28.7758 20.5115 28.2552 20.2752 27.7083 20.3598C27.5265 20.3971 27.3539 20.47 27.2005 20.5744C27.047 20.6788 26.9158 20.8125 26.8144 20.9679C26.8042 20.984 26.7531 21.0073 26.7327 20.9869C26.5569 20.9231 26.3772 20.871 26.1946 20.8308C26.1289 20.8163 26.1639 20.7667 26.1669 20.7579C26.2752 20.5624 26.4268 20.3943 26.6102 20.2665C26.8201 20.1004 27.0674 19.9883 27.3306 19.9398C27.3627 19.9398 27.3627 19.896 27.3539 19.8815C27.3022 19.7714 27.226 19.6745 27.1313 19.5982C27.0365 19.5219 26.9257 19.4682 26.8071 19.441C26.6152 19.3794 26.4112 19.3657 26.2129 19.4013C26.0145 19.4369 25.828 19.5207 25.6696 19.6452C25.3614 19.9014 25.1357 20.2428 25.0206 20.6267C25.0002 20.6558 24.9944 20.6792 24.9681 20.6733C24.8237 20.6442 24.465 20.6631 24.4329 20.6413C24.411 20.631 24.4154 20.5975 24.4198 20.5756C24.4807 20.3672 24.5919 20.1769 24.7435 20.0215C24.8802 19.8376 25.0634 19.6937 25.2744 19.6044C25.287 19.5986 25.2979 19.5896 25.306 19.5783C25.3141 19.567 25.3192 19.5538 25.3206 19.54C25.3221 19.5262 25.32 19.5122 25.3144 19.4994C25.3088 19.4867 25.3001 19.4756 25.2889 19.4673C24.994 19.3145 24.6551 19.2692 24.3304 19.3392C24.0057 19.4092 23.7156 19.5901 23.5098 19.8508C23.3041 20.1608 23.154 20.5043 23.0664 20.8658C23.0635 20.879 23.0417 20.9183 23.0139 20.9183L22.2731 21.0817L22.1521 21.1094L22.12 21.1429C22.5711 20.4195 22.8213 19.5889 22.8448 18.7367V18.4829ZM4.68853 18.6069H12.2573V18.7381C12.2712 19.874 12.7062 20.9642 13.4779 21.7977H5.18582C4.89881 20.7565 4.73293 19.686 4.68853 18.6069ZM5.29374 22.1696H13.8439C13.897 22.2198 13.9514 22.2684 14.0073 22.3154C14.9024 23.067 16.0074 23.5243 17.1719 23.625V25.3896H6.6427C6.19001 24.5308 5.8001 23.6403 5.47603 22.7252C5.41172 22.5417 5.35095 22.3569 5.29374 22.171V22.1696ZM20.7287 22.5925L20.7142 22.61H20.7112L20.7083 22.6071C20.7156 22.6022 20.7229 22.5974 20.7302 22.5925H20.7287ZM23.2633 22.8623C22.9999 22.8627 22.7425 22.9414 22.5239 23.0883C22.276 23.2236 22.0762 23.4325 21.9523 23.6863C21.8124 24.0483 21.7278 24.4293 21.7014 24.8165C21.6963 24.8284 21.6888 24.8391 21.6792 24.8479C21.6697 24.8567 21.6584 24.8634 21.646 24.8675C21.4808 24.9 21.3177 24.9424 21.1575 24.9944C21.1495 24.9937 21.142 24.9905 21.136 24.9852C21.13 24.98 21.1258 24.973 21.1239 24.9652C21.0724 24.5972 21.1497 24.2226 21.3427 23.905C21.4228 23.7577 21.5308 23.6275 21.6606 23.5215C21.6701 23.5154 21.6774 23.5064 21.6816 23.4959C21.6858 23.4855 21.6865 23.4739 21.6838 23.463C21.681 23.452 21.6749 23.4422 21.6663 23.4349C21.6577 23.4276 21.6471 23.4232 21.6358 23.4223C21.3111 23.3672 20.9773 23.4259 20.6908 23.5885C20.512 23.6872 20.3591 23.8268 20.2446 23.9958C20.13 24.1649 20.0571 24.3586 20.0317 24.5612C19.9973 24.8513 20.0181 25.1452 20.0929 25.4275C20.0929 25.4363 20.1017 25.4669 20.0696 25.4727C19.9587 25.5267 19.6583 25.6842 19.5519 25.7352C19.5446 25.7381 19.5242 25.7425 19.5198 25.7265C19.4924 25.6179 19.4438 25.5159 19.3767 25.4262C19.3096 25.3366 19.2254 25.2612 19.1289 25.2044C19.0248 25.1617 18.9126 25.1424 18.8002 25.148C18.6878 25.1535 18.578 25.1837 18.4785 25.2365C18.3442 25.3126 18.2348 25.4261 18.1635 25.5631C18.1136 25.6782 18.1048 25.8069 18.1385 25.9277C18.1722 26.0485 18.2465 26.1541 18.3487 26.2267C18.3575 26.2354 18.3735 26.2558 18.3487 26.2631C18.2175 26.3346 18.2146 26.3506 18.1154 26.4979C18.0654 26.6034 18.046 26.7209 18.0594 26.8369C18.0728 26.9529 18.1185 27.0628 18.1912 27.1542C18.2459 27.235 18.3173 27.3031 18.4007 27.3538C18.484 27.4046 18.5773 27.4367 18.6742 27.448C18.7711 27.4594 18.8694 27.4497 18.9622 27.4196C19.055 27.3895 19.1402 27.3398 19.2121 27.2738C19.2179 27.2694 19.2383 27.281 19.2485 27.3029C19.3034 27.389 19.3741 27.4637 19.4571 27.5231C19.5583 27.5802 19.6726 27.6103 19.7888 27.6103C19.9051 27.6103 20.0194 27.5802 20.1206 27.5231C20.2265 27.4647 20.3124 27.3757 20.367 27.2677C20.4217 27.1598 20.4425 27.0379 20.4269 26.9179C20.4247 26.7743 20.3667 26.6372 20.265 26.5358C20.246 26.5125 20.265 26.5008 20.3146 26.4688C21.1959 25.9638 22.1664 25.634 23.1729 25.4975C23.6939 25.4172 24.2248 25.4281 24.7421 25.5296C25.0795 25.6068 25.3938 25.7627 25.6594 25.9846C25.8759 26.1596 26.0743 26.356 26.2514 26.5708C26.3109 26.5806 26.3718 26.5676 26.4221 26.5344C26.4761 26.4166 26.5057 26.289 26.5092 26.1595C26.5127 26.0299 26.49 25.901 26.4425 25.7804C26.3218 25.4557 26.1306 25.1618 25.8825 24.92C25.8781 24.9171 25.8781 24.901 25.8781 24.8908C25.8723 24.8471 25.9 24.8252 25.9539 24.7756C26.1837 24.5608 26.4666 24.4113 26.7735 24.3425C26.8129 24.3396 26.8289 24.3104 26.8027 24.2652C26.6918 24.0628 26.5114 23.9074 26.2948 23.8275C26.0783 23.7476 25.8402 23.7487 25.6244 23.8306C25.3403 23.9504 25.1049 24.1647 24.9608 24.4373C24.9521 24.4533 24.9287 24.5102 24.9069 24.4927C24.7756 24.481 24.5539 24.446 24.4242 24.4344C24.3644 24.4315 24.3877 24.3775 24.3892 24.3687C24.4431 24.1937 24.5404 24.0352 24.6721 23.9079C24.8485 23.7047 25.0703 23.5458 25.3196 23.4442C25.3246 23.4436 25.3293 23.4418 25.3335 23.4389C25.3376 23.4361 25.341 23.4323 25.3433 23.4278C25.3456 23.4233 25.3468 23.4184 25.3467 23.4133C25.3466 23.4083 25.3453 23.4034 25.3429 23.399C25.2602 23.2982 25.1569 23.2162 25.04 23.1586C24.923 23.101 24.7951 23.0691 24.6648 23.065C24.4988 23.0563 24.3329 23.0827 24.1779 23.1425C24.0228 23.2023 23.8821 23.2942 23.765 23.4121C23.4859 23.7073 23.313 24.087 23.2735 24.4913C23.2604 24.5248 23.2444 24.5423 23.2196 24.5423C23.0854 24.5639 22.95 24.5761 22.8142 24.5788C22.7923 24.5729 22.7937 24.5496 22.7937 24.5263C22.7962 24.3201 22.8466 24.1174 22.941 23.9342C23.126 23.5834 23.4034 23.2899 23.7431 23.0854C23.7956 23.049 23.7985 22.9746 23.781 22.9658C23.6171 22.897 23.4411 22.8618 23.2633 22.8623ZM6.86437 25.8008H17.1733V28.9946H9.06062C8.58662 28.45 8.14914 27.8746 7.75103 27.2723C7.43748 26.7921 7.14124 26.3008 6.86291 25.7994L6.86437 25.8008ZM21.5585 27.5158C21.4189 27.5103 21.2806 27.5452 21.1604 27.6165C20.8326 27.7889 20.5843 28.0816 20.4677 28.4331C20.3994 28.7073 20.4055 28.9948 20.4852 29.2658C20.4896 29.276 20.5027 29.3008 20.4823 29.3096C20.3685 29.3533 20.2839 29.4044 20.1717 29.4496C20.1658 29.4496 20.1367 29.4569 20.1308 29.4423C20.0362 29.2727 19.9977 29.0776 20.0208 28.8848C20.0438 28.692 20.1273 28.5114 20.2592 28.369C20.2839 28.3471 20.2985 28.3179 20.2475 28.3004C20.1052 28.2785 19.9596 28.2929 19.8243 28.342C19.6889 28.3912 19.5682 28.4737 19.4731 28.5819C19.3638 28.7135 19.2906 28.8714 19.2607 29.0398C19.2308 29.2083 19.2452 29.3817 19.3025 29.5429C19.331 29.6764 19.3797 29.8047 19.4469 29.9235C19.4512 29.9308 19.4906 29.9542 19.4673 29.9644L19.2485 30.1321C19.2442 30.1365 19.2281 30.1438 19.2208 30.1321C19.1768 30.0491 19.1168 29.9757 19.0442 29.9161C18.9716 29.8565 18.8879 29.8119 18.7979 29.785C18.7163 29.7657 18.6311 29.7673 18.5503 29.7897C18.4694 29.8122 18.3956 29.8547 18.3356 29.9133C18.2708 29.9773 18.2236 30.0569 18.1988 30.1445C18.1739 30.2321 18.1722 30.3246 18.1938 30.4131C18.2154 30.5015 18.2596 30.5829 18.322 30.6492C18.3844 30.7154 18.463 30.7644 18.55 30.7913C18.5602 30.7956 18.5748 30.8088 18.5573 30.8204C18.441 30.8992 18.3458 31.0054 18.2802 31.1296C18.2407 31.2296 18.2314 31.339 18.2534 31.4442C18.2755 31.5494 18.3279 31.6459 18.4042 31.7217C18.4615 31.772 18.5288 31.8095 18.6017 31.8319C18.6746 31.8543 18.7514 31.8609 18.8271 31.8515C18.9401 31.8144 19.0446 31.7549 19.134 31.6764C19.2235 31.598 19.2962 31.5023 19.3477 31.395C19.3506 31.3906 19.3783 31.3702 19.3929 31.3862C19.4869 31.522 19.6218 31.6242 19.7779 31.6779C19.8577 31.7057 19.9435 31.7115 20.0264 31.6949C20.1092 31.6782 20.1861 31.6396 20.2489 31.5831C20.3346 31.5159 20.3966 31.423 20.4257 31.318C20.4548 31.2131 20.4496 31.1016 20.4108 30.9998C20.3404 30.8724 20.2397 30.7642 20.1177 30.6848C20.0987 30.6702 20.1133 30.6338 20.1512 30.6046C20.742 30.1296 21.447 29.8178 22.1958 29.7004C22.707 29.6326 23.2269 29.7168 23.6906 29.9425C23.8718 30.0488 24.0372 30.1798 24.1821 30.3319C24.201 30.3421 24.255 30.361 24.2739 30.3435C24.3838 30.2426 24.4504 30.1031 24.4599 29.9542C24.4694 29.8053 24.4211 29.6585 24.325 29.5444C24.2422 29.4446 24.14 29.3627 24.0246 29.3038C24.0198 29.2972 24.0163 29.2898 24.0144 29.2819C24.1046 29.0538 24.2566 28.8553 24.4533 28.7088C24.5879 28.6224 24.7324 28.5524 24.8835 28.5002C24.9156 28.4915 24.9098 28.471 24.8937 28.4317C24.7071 28.0044 23.9677 27.9883 23.6192 28.2129C23.4063 28.3613 23.233 28.5596 23.1146 28.7904C23.1073 28.805 23.0971 28.8488 23.0781 28.8356L22.7675 28.7423C22.7617 28.7423 22.7617 28.7073 22.7646 28.7015C22.8675 28.5014 23.0109 28.3248 23.1856 28.183C23.3603 28.0412 23.5626 27.9371 23.7796 27.8775C23.8014 27.8687 23.7942 27.8483 23.7898 27.8367C23.6294 27.4458 22.8258 27.4794 22.4335 27.7288C22.069 27.9705 21.8115 28.3434 21.7146 28.77C21.7102 28.7992 21.7233 28.824 21.7044 28.8283C21.5954 28.8657 21.4831 28.8926 21.3689 28.9085C21.3604 28.9078 21.3525 28.904 21.3465 28.8979C21.3406 28.8917 21.3372 28.8835 21.3369 28.875C21.3081 28.6789 21.3423 28.4787 21.4346 28.3033C21.5655 28.0852 21.7243 27.8852 21.9071 27.7083C21.9131 27.7022 21.9178 27.6948 21.9209 27.6868C21.924 27.6787 21.9254 27.6701 21.9249 27.6614C21.9245 27.6528 21.9223 27.6444 21.9185 27.6366C21.9147 27.6289 21.9093 27.622 21.9027 27.6165C21.7984 27.5541 21.68 27.5205 21.5585 27.5158ZM17.1748 29.4058V34.389C17.0319 34.3423 16.8627 34.281 16.676 34.2183C16.4164 34.1308 16.1321 33.9981 15.8054 33.8581C14.8173 33.4447 13.8618 32.9572 12.9471 32.3998C12.3629 32.0253 11.8042 31.6127 11.2744 31.1646C10.6198 30.6209 10.0029 30.0333 9.42812 29.4058H17.1719H17.1748Z" fill="#FAFAFA"/>
</g>
<defs>
<clipPath id="clip0_224_348">
<rect width="35" height="35" fill="white"/>
</clipPath>
</defs>
</svg>
