<svg width="35" height="35" viewBox="0 0 35 35" fill="none" xmlns="http://www.w3.org/2000/svg">
<g clip-path="url(#clip0_225_1244)">
<path d="M17.5 0C7.81667 0 0 7.81667 0 17.5C0 27.1833 7.81667 35 17.5 35C27.1833 35 35 27.1833 35 17.5C35 7.81667 27.1833 0 17.5 0ZM17.5 2.05625C19.25 2.05625 20.9417 2.37708 22.5021 2.91667L17.6896 13.3146C17.6313 13.3729 17.6313 13.5042 17.5 13.5042C17.3688 13.5042 17.3688 13.3729 17.3104 13.3146L12.4979 2.91667C14.0583 2.37708 15.75 2.07083 17.5 2.07083M10.0625 3.99583L15.6333 15.9979C15.75 16.2458 15.8813 16.3187 16.0417 16.3187H18.9583C19.1333 16.3187 19.25 16.2458 19.3813 15.9979L24.8792 3.99583C27.1833 5.30833 29.1667 7.18958 30.5667 9.43542L22.75 24.5583C22.6917 24.6896 22.6042 24.7479 22.5604 24.7479C22.4438 24.7479 22.4438 24.6313 22.3708 24.5583L19.3813 17.9375C19.25 17.6896 19.1333 17.6313 18.9583 17.6313H16.0417C15.8813 17.6313 15.75 17.6896 15.6188 17.9375L12.6292 24.5583C12.5563 24.6313 12.5708 24.7479 12.4396 24.7479C12.3083 24.7479 12.3083 24.6313 12.25 24.5583L4.375 9.43542C5.74583 7.18958 7.75833 5.30833 10.0625 3.99583ZM3.00417 12.4396L12.0021 29.9396C12.1187 30.1875 12.25 30.3771 12.5708 30.3771C12.8771 30.3771 12.9938 30.1875 13.125 29.9396L17.3104 20.6208C17.3688 20.5042 17.4417 20.4167 17.5 20.4167C17.6313 20.4167 17.6313 20.5625 17.6896 20.6208L21.9333 29.9396C22.0646 30.1875 22.1813 30.3771 22.5021 30.3771C22.8083 30.3771 22.9396 30.1875 23.0563 29.9396L32.0833 12.4396C32.6229 14 32.9438 15.6917 32.9438 17.5C32.8708 25.9438 25.9438 32.9438 17.5 32.9438C9.05625 32.9438 2.12917 25.9438 2.12917 17.5C2.12917 15.75 2.43542 14.0729 3.00417 12.4396Z" fill="#FAFAFA"/>
</g>
<defs>
<clipPath id="clip0_225_1244">
<rect width="35" height="35" fill="white"/>
</clipPath>
</defs>
</svg>
