<svg width="60" height="60" viewBox="0 0 60 60" fill="none" xmlns="http://www.w3.org/2000/svg">
<rect width="60" height="60" rx="30" fill="#1B69D3"/>
<g clip-path="url(#clip0_273_3673)">
<path d="M41.4671 16.4197L30.504 12.4294C28.2292 11.6015 25.7245 12.7694 24.8965 15.0443L16.9161 36.9704C16.0881 39.2453 17.2561 41.7499 19.5309 42.5779L30.494 46.5682C32.7688 47.3961 35.2735 46.2282 36.1015 43.9533L44.0819 22.0272C44.9099 19.7523 43.742 17.2477 41.4671 16.4197ZM34.3583 40.215L20.6544 35.2272L27.6373 16.0418L41.3412 21.0296L34.3583 40.215ZM28.7508 42.8298L23.2692 40.8347L23.768 39.4643L29.2495 41.4594L28.7508 42.8298Z" fill="#FAFAFA"/>
<line x1="20.3357" y1="19.4158" x2="16.5735" y2="29.7524" stroke="white" stroke-linecap="round"/>
<line x1="44.7677" y1="28.3083" x2="41.0055" y2="38.645" stroke="white" stroke-linecap="round"/>
</g>
<defs>
<clipPath id="clip0_273_3673">
<rect width="35" height="35" fill="white" transform="translate(20.0397 7.06885) rotate(20)"/>
</clipPath>
</defs>
</svg>
