<svg width="40" height="40" viewBox="0 0 40 40" fill="none" xmlns="http://www.w3.org/2000/svg">
<path d="M0.166712 19.3243C0.165741 22.7298 1.08249 26.055 2.82568 28.9859L0 39L10.5582 36.3129C13.4785 37.856 16.7504 38.6645 20.0753 38.6647H20.0841C31.0604 38.6647 39.9953 29.9953 40 19.3395C40.0021 14.176 37.9323 9.3206 34.1717 5.66764C30.4118 2.015 25.4113 0.00235654 20.0833 0C9.10571 0 0.171406 8.66894 0.166874 19.3243" fill="url(#paint0_linear_237_194)"/>
<path d="M15.0847 10.8826C14.7161 10.0434 14.3281 10.0264 13.9775 10.0117C13.6905 9.99907 13.3623 10 13.0345 10C12.7063 10 12.1731 10.1265 11.7224 10.6305C11.2713 11.1351 10 12.3543 10 14.8341C10 17.3141 11.7634 19.7107 12.0092 20.0473C12.2553 20.3833 15.4134 25.6351 20.4149 27.6555C24.5717 29.3345 25.4176 29.0006 26.3198 28.9164C27.2221 28.8325 29.2312 27.6974 29.6411 26.5204C30.0514 25.3436 30.0514 24.3348 29.9284 24.124C29.8054 23.914 29.4772 23.7879 28.9851 23.5359C28.4929 23.2838 26.0737 22.0644 25.6227 21.8961C25.1715 21.7281 24.8435 21.6442 24.5153 22.1489C24.1872 22.6528 23.2448 23.7879 22.9576 24.124C22.6707 24.461 22.3835 24.5029 21.8915 24.2508C21.3991 23.9979 19.8144 23.4663 17.9342 21.7493C16.4714 20.4132 15.4838 18.7633 15.1967 18.2586C14.9097 17.7547 15.166 17.4816 15.4127 17.2304C15.6338 17.0046 15.905 16.6418 16.1513 16.3476C16.3966 16.0532 16.4785 15.8432 16.6426 15.5071C16.8068 15.1706 16.7246 14.8762 16.6018 14.6241C16.4785 14.372 15.5223 11.8792 15.0847 10.8826Z" fill="#FAFAFA"/>
<defs>
<linearGradient id="paint0_linear_237_194" x1="2000" y1="3900" x2="2000" y2="0" gradientUnits="userSpaceOnUse">
<stop stop-color="#1FAF38"/>
<stop offset="1" stop-color="#60D669"/>
</linearGradient>
</defs>
</svg>
