<svg width="35" height="35" viewBox="0 0 35 35" fill="none" xmlns="http://www.w3.org/2000/svg">
<path d="M32.8406 30.9632L30.6019 24.4H28.1454L29.5095 30.8H5.49133L6.85552 24.4H4.399L2.15866 30.9632C1.59038 32.6336 2.59755 34 4.399 34H30.6019C32.4033 34 33.4105 32.6336 32.8406 30.9632ZM25.6888 10C25.6888 7.87827 24.8261 5.84344 23.2905 4.34315C21.7549 2.84285 19.6721 2 17.5004 2C15.3287 2 13.246 2.84285 11.7104 4.34315C10.1747 5.84344 9.31204 7.87827 9.31204 10C9.31204 17.64 17.5004 26 17.5004 26C17.5004 26 25.6888 17.64 25.6888 10ZM13.0787 10.096C13.0787 9.52877 13.1931 8.96709 13.4153 8.44305C13.6376 7.91901 13.9633 7.44289 14.3739 7.04186C14.7845 6.64084 15.272 6.32279 15.8084 6.10586C16.3449 5.88893 16.9198 5.77739 17.5004 5.7776C18.6729 5.7776 19.7974 6.23266 20.6265 7.04266C21.4556 7.85267 21.9214 8.95128 21.9214 10.0968C21.9214 11.2423 21.4556 12.3409 20.6265 13.1509C19.7974 13.9609 18.6729 14.416 17.5004 14.416C16.3277 14.416 15.203 13.9609 14.3738 13.1507C13.5446 12.3405 13.0787 11.2417 13.0787 10.096Z" fill="#1B69D3"/>
</svg>
