<svg width="35" height="35" viewBox="0 0 35 35" fill="none" xmlns="http://www.w3.org/2000/svg">
<path d="M28.6281 6.36508C27.246 4.97597 25.5997 3.87459 23.7853 3.12516C21.9709 2.37574 20.0247 1.99328 18.0602 2.00009C9.82908 2.00009 3.12054 8.67507 3.12054 16.865C3.12054 19.49 3.81401 22.04 5.11049 24.29L2.99994 32L10.9145 29.93C13.1004 31.115 15.5577 31.745 18.0602 31.745C26.2914 31.745 32.9999 25.07 32.9999 16.88C32.9999 12.9051 31.4472 9.17007 28.6281 6.36508ZM18.0602 29.225C15.8291 29.225 13.6432 28.625 11.7286 27.5L11.2763 27.23L6.5728 28.46L7.82406 23.9L7.52255 23.435C6.28297 21.4655 5.62477 19.1889 5.62305 16.865C5.62305 10.0551 11.2009 4.50508 18.0452 4.50508C21.3617 4.50508 24.4823 5.79508 26.819 8.13507C27.976 9.28101 28.893 10.6441 29.5166 12.1452C30.1403 13.6463 30.4583 15.2557 30.4522 16.88C30.4823 23.69 24.9045 29.225 18.0602 29.225ZM24.8743 19.985C24.4974 19.805 22.6582 18.905 22.3266 18.77C21.9798 18.65 21.7386 18.59 21.4823 18.95C21.2261 19.325 20.5175 20.165 20.3065 20.405C20.0954 20.66 19.8693 20.69 19.4924 20.495C19.1155 20.315 17.9095 19.91 16.4924 18.65C15.3768 17.66 14.6381 16.445 14.412 16.07C14.2009 15.695 14.3818 15.5 14.5778 15.305C14.7437 15.14 14.9547 14.87 15.1356 14.66C15.3165 14.4501 15.3919 14.2851 15.5125 14.0451C15.6331 13.7901 15.5728 13.5801 15.4823 13.4001C15.3919 13.2201 14.6381 11.3901 14.3366 10.6401C14.0351 9.92007 13.7185 10.0101 13.4924 9.99507H12.7688C12.5125 9.99507 12.1205 10.0851 11.7738 10.4601C11.4421 10.8351 10.4773 11.7351 10.4773 13.5651C10.4773 15.395 11.819 17.165 11.9999 17.405C12.1808 17.66 14.6381 21.41 18.3768 23.015C19.2663 23.405 19.9597 23.63 20.5024 23.795C21.3919 24.08 22.206 24.035 22.8542 23.945C23.5778 23.84 25.0703 23.045 25.3718 22.175C25.6884 21.305 25.6884 20.57 25.5829 20.405C25.4773 20.24 25.2512 20.165 24.8743 19.985Z" fill="#1B69D3"/>
</svg>
